<svg width="147" height="48" viewBox="0 0 147 48" fill="none" xmlns="http://www.w3.org/2000/svg">
<g clip-path="url(#clip0_1146_29823)">
<path d="M2.82868 34.6892C1.86873 34.196 1.37944 33.8076 1.37944 33.0562C1.37944 32.4816 1.68234 31.8651 2.53044 31.8651C3.60921 31.8651 3.90744 32.6398 4.10316 33.3632L4.11714 33.4144L4.59711 33.3167L4.59012 33.2655C4.50624 32.5909 4.45498 32.135 4.41304 31.7325L4.39441 31.5557L4.35247 31.5488C4.30354 31.5394 4.2383 31.5255 4.16141 31.5092C3.8492 31.4417 3.32729 31.3278 2.77742 31.3278C1.52623 31.3278 0.258736 32.0512 0.258736 33.433C0.258736 34.545 0.948403 35.1289 2.22289 35.8174C3.21545 36.3571 3.68144 36.7014 3.68144 37.5482C3.68144 38.2996 3.17351 38.8067 2.42093 38.8067C1.28159 38.8067 0.748027 37.8297 0.498722 37.0108L0.482412 36.9596L0.00244141 37.0806L0.00943127 37.1294C0.0886497 37.7226 0.240097 38.6113 0.333295 38.9369L0.340285 38.9649L0.368244 38.9742C0.878504 39.1626 1.49827 39.358 2.20658 39.358C3.756 39.358 4.87904 38.4089 4.87904 37.1015C4.87904 35.9431 4.18937 35.3778 2.83334 34.6799" fill="#737389"/>
<path d="M10.5172 38.2855C10.3728 38.3623 10.2423 38.4019 10.1351 38.4019C9.84855 38.4019 9.78797 38.0529 9.78797 37.7575V35.5475C9.78797 34.9195 9.60157 34.4961 9.16121 34.1355C8.88395 33.9215 8.51116 33.8052 8.10108 33.8052H8.09409C7.36482 33.961 6.63554 34.4356 6.35828 34.6333C6.10897 34.8078 5.94355 34.9636 5.94355 35.1614C5.94355 35.4778 6.2744 35.7476 6.547 35.7476C6.76835 35.7476 6.90116 35.6406 6.97339 35.4033C7.07357 35.0707 7.1458 34.8311 7.26696 34.6752C7.4021 34.51 7.5582 34.4333 7.75858 34.4333C8.33175 34.4333 8.67658 34.8776 8.67658 35.6173V35.8732C8.41796 36.0663 7.63276 36.3385 6.99669 36.5595L6.86155 36.6083C6.18819 36.8456 5.87598 37.2318 5.87598 37.8249C5.87598 38.5484 6.45381 39.33 7.38812 39.33C7.70033 39.33 8.18496 38.9997 8.61367 38.7066C8.65328 38.681 8.69056 38.6531 8.73017 38.6275C8.78143 38.7834 8.85599 38.9416 9.00511 39.0858C9.13558 39.2254 9.40353 39.3277 9.6272 39.3277H9.64351L10.7363 38.6996L10.5802 38.253L10.5219 38.2832L10.5172 38.2855ZM7.7446 36.8409L7.87508 36.7828C8.12205 36.6711 8.45291 36.5222 8.67425 36.4129V38.1227C8.46456 38.3204 8.11506 38.467 7.85178 38.467C7.55587 38.467 7.08988 38.239 7.08988 37.6272C7.08988 37.2201 7.35317 37.0177 7.7446 36.8386" fill="#737389"/>
<path d="M16.1138 37.8086V33.8517L16.0462 33.8633C15.7084 33.9215 14.8719 34.0378 14.1427 34.0704H14.0891V34.4914L14.5061 34.5496C14.8486 34.6007 14.9675 34.6519 14.9675 35.2498V37.9599C14.6203 38.2832 14.2429 38.4484 13.8374 38.4484C13.4786 38.4484 12.8798 38.2925 12.8798 37.241V35.6336C12.8798 34.8776 12.8822 34.3123 12.9148 33.9238L12.9218 33.8517L12.8495 33.8633C12.4884 33.9238 11.6543 34.0448 11.0951 34.0704H11.0415V34.4891L11.4003 34.5589C11.6473 34.6124 11.7405 34.631 11.7405 35.2474V37.5388C11.7405 39.1556 12.8099 39.33 13.2689 39.33C13.9004 39.33 14.399 38.9811 14.9675 38.5135V39.3463L15.0397 39.3254C15.7387 39.13 16.3654 38.9927 16.899 38.9159L16.9479 38.909V38.467L16.5798 38.4507C16.1884 38.4274 16.1138 38.3739 16.1138 37.804" fill="#737389"/>
<path d="M22.6961 37.7574V30.7019L22.6216 30.7275C22.1602 30.8834 21.3121 31.0439 20.7133 31.123L20.6644 31.1299V31.551L20.7157 31.5556C21.4892 31.6254 21.5521 31.6324 21.5521 32.3256V33.8935C21.2725 33.8075 20.916 33.8051 20.8741 33.8051C19.1523 33.8051 17.752 35.1055 17.752 36.7036C17.752 38.4181 19.0707 39.3323 20.0237 39.3323C20.1238 39.3323 20.4104 39.2998 20.916 39.009C21.0232 38.9438 21.1514 38.8694 21.2818 38.7926C21.375 38.7391 21.4682 38.6856 21.5521 38.6344V39.3556L21.6267 39.33C22.2604 39.116 23.0176 38.9834 23.3835 38.9182C23.437 38.9089 23.4836 38.902 23.5163 38.895L23.5629 38.888V38.4507L23.1574 38.4228C22.759 38.3948 22.6961 38.3483 22.6961 37.7598M21.5521 34.938V38.1087C21.3051 38.2832 20.9184 38.4623 20.5456 38.4623C19.807 38.4483 19.0218 37.7086 19.0218 36.3617C19.0218 34.4821 20.2077 34.3867 20.4454 34.3867C20.9114 34.3867 21.3354 34.5961 21.5544 34.938" fill="#737389"/>
<path d="M25.7691 37.8645V33.754L25.6922 33.7843C25.1773 33.9843 24.5948 34.1379 23.9634 34.2402L23.9144 34.2472V34.6427L23.9634 34.6496C24.6088 34.7543 24.6274 34.7776 24.6274 35.4824V37.8622C24.6274 38.6368 24.5645 38.6648 23.8818 38.7345L23.8306 38.7392V39.1858H26.5892V38.7392L26.538 38.7345C25.8343 38.6671 25.7691 38.6368 25.7691 37.8622" fill="#737389"/>
<path d="M25.1308 32.8305C25.5153 32.8305 25.8391 32.5048 25.8391 32.1186C25.8391 31.7069 25.5339 31.3859 25.1425 31.3859C24.7324 31.3859 24.4155 31.7069 24.4155 32.1186C24.4155 32.4978 24.751 32.8305 25.1308 32.8305Z" fill="#737389"/>
<path d="M35.4318 37.0876C34.7957 38.3414 34.1946 38.7857 33.1298 38.7857C31.3451 38.7857 30.1918 37.3644 30.1918 35.1661C30.1918 33.1469 31.2705 31.893 33.0087 31.893C33.4397 31.893 33.8987 31.9745 34.176 32.1001C34.7165 32.3187 35.0241 32.7375 35.2711 33.5842L35.2874 33.6354L35.772 33.533L35.7627 33.4795C35.6462 32.7514 35.5646 31.8977 35.5413 31.6534L35.5367 31.6069L35.4924 31.6023C35.4085 31.5906 35.3037 31.5697 35.1755 31.5441C34.7305 31.458 34.0595 31.3301 33.2743 31.3301C30.6088 31.3301 28.7495 33.0096 28.7495 35.415C28.7495 37.3807 30.0846 39.365 33.0646 39.365C33.8871 39.365 34.7235 39.1859 35.1243 39.0998L35.2431 39.0742L35.2571 39.0486C35.4295 38.6857 35.7347 37.8483 35.9048 37.2574L35.9188 37.2062L35.4528 37.0457L35.4295 37.0899L35.4318 37.0876Z" fill="#737389"/>
<path d="M39.5301 33.8029C38.8894 33.8029 38.2324 34.1192 37.7314 34.6659C37.2258 35.1986 36.9346 35.9616 36.9346 36.7572C36.9346 38.0366 37.7501 39.3277 39.3111 39.3277C39.4952 39.3277 40.4575 39.2696 41.3312 38.146L41.3568 38.1134L41.1052 37.7482L41.0563 37.7924C40.6345 38.1739 40.2058 38.36 39.7422 38.36C39.3204 38.36 38.9243 38.1948 38.6284 37.8947C38.2696 37.5318 38.0786 36.9898 38.0786 36.3268C39.3554 36.2803 40.8838 36.1849 41.1355 36.1314C41.3615 36.0733 41.3871 35.8965 41.3964 35.6871C41.3964 35.194 41.1914 34.7078 40.8326 34.3495C40.4808 33.9959 40.0148 33.8029 39.5255 33.8029M38.1461 35.7034C38.2906 34.9008 38.731 34.3658 39.2552 34.3658C39.4905 34.3658 39.7049 34.4542 39.8703 34.624C40.08 34.8357 40.1965 35.1544 40.1872 35.4917C40.1872 35.6243 40.1592 35.6662 39.9728 35.6685C39.3437 35.6964 38.738 35.7011 38.1485 35.7034" fill="#737389"/>
<path d="M47.7662 37.9063V35.6917C47.7662 34.5286 47.1604 33.8051 46.1865 33.8051C45.8021 33.8051 45.4829 33.9726 45.1963 34.1564C44.9214 34.3332 44.6837 34.496 44.4973 34.6263C44.4973 34.3634 44.4973 34.047 44.502 33.8284V33.7423L44.4228 33.7772C43.9474 33.9773 43.3556 34.1354 42.7102 34.2355L42.6613 34.2425V34.6542L42.7079 34.6635C43.2927 34.7635 43.3533 34.7752 43.3533 35.494V37.9017C43.3533 38.6507 43.2951 38.6577 42.5914 38.7391L42.5425 38.7438V39.1904H45.2126V38.7438L45.1614 38.7391C44.5323 38.6716 44.495 38.6693 44.495 37.911V35.1892C44.9027 34.838 45.2942 34.6589 45.66 34.6589C46.2984 34.6589 46.6222 35.0822 46.6222 35.9174V37.8551C46.6222 38.6414 46.557 38.674 45.9652 38.7391L45.9139 38.7438V39.1904H48.4909V38.7438L48.4396 38.7391C47.8152 38.6693 47.7639 38.6647 47.7639 37.9086" fill="#737389"/>
<path d="M52.1256 38.3367C51.8903 38.4484 51.6666 38.5042 51.4639 38.5042C51.0608 38.5042 50.8581 38.153 50.8581 37.4597V34.5542H52.0487L52.0627 34.5426C52.1466 34.4798 52.2048 34.3658 52.2188 34.2379C52.2304 34.1262 52.2048 34.0239 52.1466 33.961L52.1303 33.9424H50.8581C50.8581 33.3655 50.8697 32.7258 50.8907 32.2605V32.2117L50.6461 32.1605L50.6228 32.1791C50.4993 32.2954 50.3432 32.435 50.1917 32.5676C50.031 32.7095 49.8655 32.8537 49.7327 32.9794L49.7164 32.9956V33.9424H49.2201L48.8613 34.3426L48.9382 34.5519H49.7164V37.8645C49.7164 38.8346 50.1405 39.3277 50.9723 39.3277C51.0794 39.3277 51.2752 39.2858 51.4942 39.1719L52.326 38.7369L52.1838 38.3065L52.1256 38.3344V38.3367Z" fill="#737389"/>
<path d="M56.8484 33.8028C56.3055 33.8028 55.8465 34.3239 55.4318 34.9217V33.7423L55.3525 33.7749C54.812 33.9982 54.2668 34.1471 53.6354 34.2425L53.5864 34.2494V34.6519L53.6354 34.6589C54.2505 34.7403 54.2877 34.7473 54.2877 35.4661V37.9156C54.2877 38.6461 54.2365 38.667 53.5561 38.7345L53.5049 38.7391V39.1858H56.3777V38.7391L56.3265 38.7345C55.4644 38.6623 55.4318 38.6321 55.4318 37.9063V35.722C55.6881 35.1427 56.0772 34.8752 56.2635 34.8752C56.4499 34.8752 56.5688 34.9822 56.7575 35.1637C56.874 35.266 56.9975 35.2776 57.135 35.2009C57.3586 35.0799 57.5986 34.7915 57.5986 34.4472C57.5986 34.1285 57.34 33.8051 56.8484 33.8051" fill="#737389"/>
<path d="M62.9717 38.2855C62.8273 38.3623 62.6968 38.4019 62.5873 38.4019C62.3007 38.4019 62.2401 38.0529 62.2401 37.7575V35.5475C62.2401 34.9195 62.0537 34.4961 61.6134 34.1355C61.3361 33.9215 60.9633 33.8052 60.5532 33.8052H60.5462C59.817 33.961 59.0877 34.4356 58.8104 34.6333C58.5611 34.8078 58.3957 34.9636 58.3957 35.1614C58.3957 35.4778 58.7265 35.7476 58.9968 35.7476C59.2182 35.7476 59.3533 35.6406 59.4209 35.4149L59.4255 35.3987C59.5257 35.0683 59.598 34.8287 59.7191 34.6729C59.8542 34.5077 60.0104 34.4309 60.2107 34.4309C60.7839 34.4309 61.1287 34.8753 61.1287 35.615V35.8709C60.8701 36.064 60.0826 36.3361 59.4488 36.5571L59.3137 36.606C58.6403 36.8433 58.3281 37.2294 58.3281 37.8226C58.3281 38.5461 58.906 39.3277 59.8403 39.3277C60.1525 39.3277 60.6371 38.9974 61.0658 38.7043C61.1054 38.6787 61.1427 38.6508 61.1823 38.6252C61.2336 38.781 61.3081 38.9392 61.4573 39.0835C61.5877 39.223 61.8557 39.3254 62.0794 39.3254H62.0933L63.1884 38.6973L63.0323 38.2507L62.9741 38.2809L62.9717 38.2855ZM60.1991 36.8409L60.3296 36.7828C60.5765 36.6711 60.9074 36.5222 61.1287 36.4129V38.1227C60.9167 38.3204 60.5695 38.467 60.3063 38.467C60.0127 38.467 59.5444 38.239 59.5444 37.6272C59.5444 37.2201 59.8076 37.0177 60.1991 36.8386" fill="#737389"/>
<path d="M65.3297 37.8947V30.6996L65.2528 30.7275C64.8614 30.8694 64.1158 31.0485 63.4541 31.1206L63.4052 31.1253V31.5417L63.4541 31.5487C64.1461 31.644 64.188 31.6906 64.188 32.3536V37.8924C64.188 38.6344 64.1228 38.6624 63.4238 38.7345L63.3726 38.7391V39.1858H66.1359V38.7391L66.0846 38.7345C65.3647 38.6647 65.3297 38.6251 65.3297 37.8924" fill="#737389"/>
<path d="M72.6827 35.0032C73.391 34.766 74.0714 34.2077 74.0714 33.2632C74.0714 32.6979 73.8244 32.2303 73.3537 31.9116C72.9297 31.6255 72.3402 31.4929 71.5014 31.4929H68.2954V31.9489L68.3467 31.9535C69.26 32.0303 69.3346 32.1094 69.3346 33.0306V37.6668C69.3346 38.5834 69.2787 38.6438 68.3467 38.7322L68.2954 38.7369V39.1905H71.2987C72.1678 39.1905 72.7922 39.0509 73.384 38.7229C74.1203 38.3205 74.5443 37.6482 74.5443 36.8805C74.5443 35.9151 73.9036 35.2684 72.6874 35.0032M71.5317 38.6415C71.124 38.6462 70.9003 38.5857 70.7628 38.4484C70.6207 38.3089 70.5625 38.0669 70.5625 37.6412V35.3522H71.0401C72.48 35.3522 73.1813 35.8895 73.1813 36.9922C73.1813 38.2042 72.2936 38.6369 71.534 38.6392M71.0774 34.8125H70.5625V32.6421C70.5625 32.3118 70.5858 32.2001 70.665 32.1419C70.7652 32.0722 70.9632 32.0396 71.2684 32.0396C72.2144 32.0396 72.7782 32.556 72.7782 33.4214C72.7782 34.3705 72.2377 34.8125 71.0774 34.8125Z" fill="#737389"/>
<path d="M80.3742 38.2855C80.2297 38.3623 80.1016 38.4019 79.9921 38.4019C79.7055 38.4019 79.6449 38.0529 79.6449 37.7575V35.5475C79.6449 34.9171 79.4585 34.4961 79.0181 34.1355C78.7409 33.9215 78.3681 33.8052 77.958 33.8052H77.951C77.2194 33.961 76.4925 34.4356 76.2129 34.6333C75.9636 34.8078 75.7981 34.9636 75.7981 35.1614C75.7981 35.4778 76.129 35.7476 76.4016 35.7476C76.623 35.7476 76.7558 35.6406 76.828 35.4033C76.9282 35.0707 77.0004 34.8311 77.1239 34.6729C77.259 34.5077 77.4151 34.4309 77.6155 34.4309C78.1887 34.4309 78.5335 34.8753 78.5335 35.615V35.8709C78.2749 36.064 77.4897 36.3361 76.8536 36.5571L76.7185 36.606C76.0451 36.8433 75.7329 37.2294 75.7329 37.8226C75.7329 38.5461 76.3107 39.3277 77.2427 39.3277C77.5549 39.3277 78.0396 38.9974 78.4683 38.7043C78.5079 38.6787 78.5452 38.6508 78.5848 38.6252C78.636 38.781 78.7106 38.9392 78.8597 39.0835C78.9902 39.223 79.2581 39.3254 79.4818 39.3254H79.4981L80.5932 38.6973L80.4371 38.2507L80.3788 38.2809L80.3742 38.2855ZM77.6015 36.8409L77.7343 36.7828C77.9813 36.6711 78.3122 36.5222 78.5312 36.4152V38.125C78.3215 38.3228 77.972 38.4693 77.7087 38.4693C77.4128 38.4693 76.9468 38.2413 76.9468 37.6295C76.9468 37.2224 77.2101 37.0201 77.6015 36.8409Z" fill="#737389"/>
<path d="M85.9962 37.9063V35.6917C85.9962 34.5286 85.3904 33.8051 84.4165 33.8051C84.0321 33.8051 83.7129 33.9726 83.4263 34.1564C83.1513 34.3332 82.916 34.496 82.7273 34.6263C82.7273 34.3634 82.7273 34.047 82.7319 33.8284V33.7423L82.6527 33.7772C82.1774 33.9773 81.5856 34.1354 80.9402 34.2355L80.8913 34.2425V34.6542L80.9402 34.6635C81.525 34.7635 81.5856 34.7752 81.5856 35.494V37.9017C81.5856 38.6507 81.5274 38.6577 80.8237 38.7391L80.7725 38.7438V39.1904H83.4449V38.7438L83.3937 38.7391C82.7646 38.6716 82.7273 38.6693 82.7273 37.911V35.1892C83.135 34.838 83.5265 34.6589 83.8923 34.6589C84.5307 34.6589 84.8545 35.0822 84.8545 35.9174V37.8551C84.8545 38.6414 84.7893 38.674 84.1975 38.7391L84.1462 38.7438V39.1904H86.7232V38.7438L86.6719 38.7391C86.0475 38.6693 85.9962 38.6647 85.9962 37.9086" fill="#737389"/>
<path d="M93.119 38.7368C92.681 38.7066 92.5295 38.674 92.0053 38.139C91.6628 37.7691 90.5327 36.4501 90.2415 36.0477C90.5071 35.7266 90.9614 35.2102 91.1641 34.9985C91.6441 34.4961 91.9027 34.3984 92.6786 34.2774L92.7276 34.2704V33.8377L90.1902 33.9447V34.3867L90.2438 34.3914C90.4279 34.4077 90.6795 34.4402 90.7191 34.5263C90.7401 34.5728 90.7098 34.6542 90.6236 34.7752C90.4372 35.0567 90.0085 35.5754 89.7382 35.843C89.5565 36.0337 89.3584 36.1547 89.1045 36.2245V30.6949L89.0276 30.7229C88.5266 30.909 87.8207 31.0625 87.2312 31.116L87.1799 31.1207V31.5347L87.2289 31.5417C87.9092 31.6487 87.9651 31.658 87.9651 32.3605V37.8924C87.9651 38.6135 87.9232 38.6577 87.2056 38.7298L87.1543 38.7345V39.1811H89.9036V38.7345L89.8524 38.7298C89.1371 38.6577 89.1091 38.6275 89.1091 37.8924V36.6502C89.1627 36.6409 89.221 36.6432 89.2419 36.6455C89.3142 36.6455 89.3747 36.6944 89.5215 36.8665C89.5681 36.9177 90.5421 38.118 91.064 38.7601C91.2573 38.9974 91.3925 39.1649 91.4111 39.1858L91.4298 39.2067H91.4577C91.721 39.1904 92.4177 39.1788 93.1236 39.1811H93.1819V38.7322L93.1283 38.7275L93.119 38.7368Z" fill="#737389"/>
<path fill-rule="evenodd" clip-rule="evenodd" d="M12.6867 12.5594C12.5073 12.6548 12.5399 12.9526 12.279 12.9223C11.7734 12.8665 12.3442 11.3428 12.3978 11.1381C12.0972 11.4219 11.6662 12.8176 11.9598 13.2713C12.0273 13.3736 12.2091 13.4364 12.3489 13.3457C12.5399 13.2201 12.6401 12.8502 12.6867 12.5571M78.7316 16.2489L79.6077 16.8537C79.7311 16.749 80.0084 16.2442 80.0037 16.0046C79.8476 15.9023 79.3397 15.4928 79.1393 15.451C79.0531 15.537 78.7642 16.1046 78.7316 16.2489ZM43.0856 15.116C43.2347 15.2346 43.3699 15.3067 43.5167 15.4114C43.6285 15.4928 43.8405 15.6603 43.943 15.7045C44.0502 15.6185 44.4533 14.9927 44.3065 14.8322C44.2692 14.7903 44.1784 14.7368 44.1131 14.6856C43.9896 14.5879 43.6192 14.3158 43.4724 14.3041C43.3932 14.3855 43.0856 14.9857 43.0833 15.116M86.8095 21.4574C86.9074 21.5388 87.632 22.0343 87.6903 22.0506C87.7928 21.9226 88.1097 21.4271 88.0724 21.2061C88.0561 21.1689 87.3734 20.6618 87.18 20.6432C87.1241 20.7385 86.8189 21.3597 86.8095 21.4574ZM62.3357 14.6112C62.3357 15.3672 63.051 15.0346 63.2304 14.8229C63.3888 14.6344 63.4145 14.3995 63.4145 14.1157C63.4145 13.8156 63.0603 13.4713 62.9019 13.3946C62.9182 13.2806 62.9648 13.1666 63.0091 13.0642C63.03 13.0154 63.058 12.9595 63.0743 12.9153C63.0999 12.8409 63.1279 12.813 63.0603 12.7781C62.8133 12.6548 62.338 14.2367 62.338 14.6089M63.2537 14.2971C63.1582 14.4902 62.7388 14.6554 62.6036 14.5809C62.4336 14.4856 62.6153 13.9901 62.7062 13.8691C62.9112 13.9529 63.1652 14.1203 63.256 14.2995M78.7922 12.8781C78.7922 13.1689 78.8295 13.3434 79.165 13.3434C79.7102 13.3434 79.8686 12.8618 79.8686 12.385C79.8686 12.0104 79.4516 11.7452 79.356 11.6289C79.405 11.4847 79.5471 11.1939 79.5494 11.059C79.3444 11.0125 79.3164 11.1939 79.2395 11.3637C79.1673 11.5242 79.1114 11.6475 79.0438 11.8197C78.9553 12.0407 78.7922 12.6339 78.7922 12.8781ZM79.7125 12.599C79.6543 12.6734 79.2652 12.9502 79.0601 12.8525C78.8597 12.7572 79.0788 12.2361 79.165 12.1384C79.3444 12.2058 79.6752 12.4338 79.7125 12.5966M28.4815 14.8764C28.3976 14.9438 28.3603 14.9904 28.2368 15.0439C27.7056 15.2742 27.9526 14.8019 27.8407 14.467C27.7429 14.4925 27.7685 14.4065 27.6939 14.7391C27.6683 14.8508 27.645 14.9625 27.6031 15.0625C27.5355 15.2276 27.3211 15.4324 27.0928 15.3184C26.9367 15.1974 27.0579 14.9508 27.0439 14.7438C26.9018 14.795 26.6268 15.337 26.8225 15.6929C27.0532 16.1139 27.5495 15.558 27.6846 15.565C27.9246 15.5789 28.0388 15.5998 28.2228 15.4672C28.7424 15.0904 28.8286 14.332 28.5886 14.1157L28.5304 14.1855C28.5118 14.2157 28.5001 14.2413 28.4815 14.2669C28.4628 14.2995 28.3999 14.4041 28.3929 14.439C28.3766 14.5088 28.4791 14.6926 28.4861 14.8741M4.28722 11.6987C4.22897 11.7359 4.26159 11.6941 4.22664 11.7732C4.16839 11.8941 4.15907 12.3175 3.93539 12.4966C3.83521 12.5757 3.6092 12.6339 3.52998 12.5106C3.43911 12.371 3.55095 12.1384 3.51833 11.9755C3.18515 12.1337 3.00807 13.4062 3.83288 12.9944C3.93539 12.9433 3.94704 12.9107 4.03092 12.8502C4.14742 12.7641 4.16606 12.8176 4.31518 12.8176C5.07707 12.8176 5.3823 11.6778 5.07707 11.3428C5.00018 11.3986 4.84175 11.6475 4.8767 11.7638C4.92795 11.9313 5.14231 12.1616 4.63671 12.3082C4.59943 12.3175 4.53419 12.3338 4.49691 12.3338C4.38274 12.3338 4.40371 12.3524 4.37343 12.271C4.30353 12.0849 4.44798 11.8267 4.29188 11.6987M43.4188 23.5068C43.5772 23.4579 44.0153 23.209 44.1807 23.116L46.0889 22.132C46.1588 22.0552 46.1821 21.7644 46.1658 21.6504L44.6234 22.4135C44.3648 22.5577 44.1108 22.688 43.8522 22.8159C43.773 22.8554 43.5306 22.988 43.498 23.0346C43.4421 23.1137 43.4048 23.4021 43.4165 23.5068M8.12931 24.6513C8.26212 24.6187 9.39681 23.9883 9.63912 23.8627L10.7994 23.2788C10.8693 23.2044 10.895 22.9089 10.8763 22.795C10.7179 22.8461 9.53428 23.4463 9.33623 23.558C9.08692 23.6975 8.82131 23.8325 8.56734 23.9604C8.48347 24.0023 8.24814 24.1279 8.21319 24.1791C8.15727 24.2605 8.11999 24.5397 8.13164 24.649M54.1506 22.5996C54.0504 22.3018 53.9129 21.2689 53.2372 21.2736C53.172 21.3759 52.9367 21.6574 53.0229 21.804C53.2605 22.2111 53.5378 21.9924 53.5564 21.9947C53.6729 22.0226 53.9246 22.7252 53.9758 22.9089C54.0131 23.0346 54.0271 23.2114 54.0597 23.2928C54.3976 23.2416 54.3603 21.7947 54.7284 21.5574C54.9661 21.5411 54.9265 21.6853 55.0686 21.7644C55.46 21.6132 54.9917 20.6269 54.5723 21.248C54.3533 21.5737 54.2368 22.4949 54.1506 22.5996ZM47.7385 10.6868C47.657 10.51 47.5358 9.36548 46.8112 9.3678C46.746 9.48644 46.5176 9.76094 46.6108 9.90284C46.9603 10.4356 47.0675 9.88423 47.2423 10.2099L47.4473 10.6821C47.5428 10.9287 47.629 11.3498 47.6593 11.3893C47.9016 11.259 47.9599 10.5798 48.0321 10.2681C48.2791 9.21427 48.4911 9.80514 48.6752 9.85632C48.9408 9.64928 48.7218 9.06306 48.3746 9.15146C48.0438 9.2352 47.8946 10.0145 47.8294 10.3262C47.8061 10.4425 47.7898 10.61 47.7385 10.6868ZM27.0882 21.9459C27.0882 21.9459 27.0882 21.9319 27.0882 21.9296L27.0928 21.8807C27.1115 21.8016 27.1394 21.8203 27.1441 21.6807C26.988 21.7086 26.9018 21.9459 26.7713 22.0482C26.5732 22.2041 26.3729 22.0482 26.1795 22.011C25.6273 21.9017 25.124 22.4065 24.7978 22.7275C23.9707 23.5394 23.8006 23.437 23.6002 23.5998C23.5653 23.6278 23.5886 23.6045 23.5583 23.6394C24.3225 23.5789 24.6137 23.0462 25.1124 22.6996C25.8346 22.1971 26.1189 22.5065 26.3962 22.5112C26.6641 22.5158 26.8924 22.2762 26.9484 22.2832C27.0183 22.2925 27.1254 22.3855 27.2629 22.3879C27.5984 22.3925 27.7289 21.7435 27.5798 21.5597C27.3491 21.6574 27.4353 21.9482 27.433 21.9994C27.3165 22.0064 27.1767 21.9901 27.0905 21.9412M18.5605 10.5775C18.4766 10.6752 18.3928 10.7449 18.3066 10.8403C18.204 10.952 18.1598 11.0032 18.0456 11.1032C17.8499 11.2753 17.6588 11.4312 17.4491 11.594C17.2674 11.7336 16.2865 12.4431 16.2376 12.5711C16.5544 12.5059 17.4911 11.943 17.7217 11.7638C17.9687 11.5731 18.5046 11.0613 18.6654 10.7961C18.7143 10.7147 18.7026 10.7101 18.7725 10.6356C18.917 10.7054 18.9613 10.7147 19.0731 10.8264C19.0778 10.8217 19.0848 10.8078 19.0871 10.8101C19.1011 10.8264 19.2525 10.5333 19.2595 10.4169C19.2642 10.282 19.0848 10.2146 18.9263 10.1541C18.9333 9.89354 19.0405 9.56786 18.903 9.29103C18.6747 8.83509 17.9221 9.5539 18.0106 10.0796C18.0386 10.2425 18.1481 10.3146 18.2343 10.3751C18.2763 10.4053 18.3299 10.4449 18.3904 10.4751C18.4184 10.4867 18.4464 10.496 18.4766 10.5123L18.5582 10.5751L18.5605 10.5775ZM18.2879 9.81212C18.3462 9.57251 18.7912 9.45155 18.7166 10.0285C18.6094 10.0866 18.3578 9.9168 18.2879 9.81212ZM28.1995 12.1919L27.6963 12.7316C27.2885 13.148 26.3565 13.8272 25.9348 14.2157C25.9907 14.2529 25.8882 14.2622 26.0327 14.232L26.3053 14.0878C26.7037 13.8621 27.0066 13.7202 27.3654 13.4271C27.7033 13.1503 28.2857 12.5827 28.3743 12.2454C28.5584 12.2547 28.6329 12.371 28.7564 12.4175C28.7913 12.2803 28.9102 12.1105 28.8869 11.943C28.7867 11.8522 28.6585 11.8197 28.549 11.7313C28.5747 11.4777 28.6399 11.1265 28.4908 10.8729C28.1949 10.3727 27.1627 11.5964 27.857 12.0104C28.0085 12.1012 28.1157 12.0965 28.2019 12.1942M27.9013 11.4358C27.9316 11.2916 28.09 11.2079 28.2438 11.2381C28.3137 11.3707 28.3393 11.4707 28.337 11.6568C28.1926 11.6708 27.9619 11.5289 27.899 11.4358M18.67 22.2367C18.6467 22.2948 17.8895 23.3253 18.5605 23.5603C18.8005 23.6417 19.1849 23.5719 19.4063 23.4928C19.6137 23.4207 19.9259 23.2323 20.0004 23.0904C19.7441 23.1183 19.4995 23.216 19.2013 23.2486C18.0386 23.3719 18.4906 22.7624 18.9822 22.2785C19.2246 22.0389 19.5624 21.9412 19.5041 21.4946C19.3317 21.562 19.136 21.9878 18.7725 21.8342C18.43 21.69 18.7423 21.4248 18.8401 21.4155C18.952 21.4039 18.9613 21.476 19.0079 21.5365C19.2129 21.3922 19.2269 21.1154 19.0894 21.0666C18.8774 20.9898 18.3858 21.5527 18.3462 21.8156C18.3089 22.0622 18.4766 22.1925 18.6724 22.2367M4.94659 23.7115C5.0561 23.5998 5.3357 23.0997 5.33803 22.8717C5.17959 22.7461 4.62972 22.3158 4.43866 22.3064C4.37343 22.4414 4.1847 22.7833 4.15208 22.9159C3.975 22.8461 3.52532 22.3925 3.27136 22.3646C3.21311 22.4297 2.90322 23.0508 2.87992 23.1672C2.90788 23.1997 3.69308 23.7511 3.78162 23.7697C3.82356 23.6859 4.05422 23.2183 4.11014 23.1648C4.33848 23.2788 4.80913 23.6766 4.94892 23.7115M62.6735 23.9046C62.839 23.9348 63.6545 23.7162 63.8665 23.665C64.3907 23.537 64.5398 23.5161 64.9802 23.2695C65.593 22.9252 66.1428 22.5367 66.4015 21.8761C66.4108 21.8528 66.4201 21.8249 66.4318 21.8016C66.4597 21.7458 66.4434 21.7714 66.469 21.7435C66.5389 21.8249 67.1005 22.3181 67.3218 22.118C67.4406 22.0087 67.5944 21.4667 67.3474 21.1247C66.9653 20.599 66.6741 21.2713 66.6252 21.3108C66.497 21.4132 66.6205 21.1294 66.3362 21.6272C66.2524 21.7714 66.1731 21.9505 66.0823 22.0506C65.2318 22.9694 62.9718 23.6673 62.6735 23.9046ZM66.7906 21.4783C67.0096 21.2317 67.2938 21.4853 67.2752 21.7575C67.1238 21.7458 66.8442 21.5667 66.7906 21.4783ZM36.9532 23.7115C37.065 23.5998 37.34 23.1044 37.3446 22.8717C37.2165 22.7694 36.6503 22.3204 36.4453 22.3088L36.14 22.9113C36.0561 22.8741 36.0352 22.8299 35.928 22.7554C35.7835 22.6531 35.4131 22.3809 35.2756 22.3669C35.2174 22.4321 34.9075 23.0532 34.8842 23.1695C34.9238 23.216 35.674 23.7534 35.7859 23.772C35.8278 23.6906 36.0608 23.2207 36.1144 23.1672C36.3381 23.2742 36.8087 23.6743 36.9555 23.7138M73.6896 10.7961C73.6243 10.8752 73.5102 10.9846 73.4263 11.059C73.0488 11.4056 72.3126 11.8778 71.8582 12.1709C71.6951 12.2756 71.299 12.4966 71.2361 12.6292C71.4155 12.6036 71.8489 12.3989 72.0237 12.3245C72.2986 12.2058 72.5246 12.0965 72.7529 11.943C73.7036 11.2986 73.6383 11.1241 73.8969 10.8845L74.1183 11.0032C74.1439 11.3079 73.7478 12.0151 73.9179 12.5897C74.095 13.1852 74.6938 12.7944 74.6751 12.0081C74.5726 12.1128 74.4515 12.5292 74.1998 12.3617C73.8899 12.1523 74.1952 11.2381 74.293 10.9566C74.4421 10.5263 74.2394 10.5495 74.0927 10.389C74.561 8.33727 72.6061 9.97728 73.368 10.5937C73.5055 10.7054 73.5964 10.7101 73.6849 10.7984M73.4799 9.96332C73.9995 9.61439 73.9109 10.2192 73.8666 10.303C73.7735 10.275 73.7105 10.2378 73.6337 10.1936C73.5381 10.1401 73.4752 10.1145 73.4799 9.96332ZM84.2489 10.8799C84.1977 10.7775 84.1814 10.6007 84.1464 10.4821C84.0439 10.1424 83.8295 9.68185 83.4032 9.68185C83.3053 9.85864 83.0117 10.1262 83.4148 10.3588C83.5965 10.4635 83.5872 10.3588 83.706 10.3355C83.8389 10.4332 84.1115 11.1613 84.1581 11.4196C84.1534 11.4242 84.1464 11.4242 84.1441 11.4312C84.1441 11.4405 84.1348 11.4405 84.1301 11.4428C84.0252 11.5312 83.995 11.5591 83.9414 11.7313C83.9041 11.8499 83.8528 12.043 83.8994 12.143C83.9297 12.1058 84.0602 11.9453 84.0905 11.9244C84.1464 11.8895 84.1814 11.8871 84.2513 11.9104C84.2792 11.9197 84.2885 11.9244 84.3142 11.9453C84.3678 11.9848 84.3398 11.9593 84.3724 12.0104C84.221 12.1035 83.9041 12.1128 83.7992 12.5106C83.7247 12.7897 83.8272 13.1643 83.8831 13.4411C83.946 13.7435 84.0043 14.0343 84.0486 14.3437C84.0742 14.5228 84.0975 15.2835 84.1301 15.3556C84.2909 15.1253 84.2303 14.2809 84.1883 13.9668C84.1324 13.5434 84.0322 13.1038 83.9018 12.7223C84.0369 12.5292 84.4446 12.4454 84.6893 12.3826C84.8361 12.3454 84.8244 12.3338 84.885 12.1989C84.9968 11.9476 84.9409 11.8453 84.7755 11.7034C84.4912 11.4568 84.3747 11.4614 84.2885 11.3986C84.4563 10.8729 84.4237 10.8496 84.5402 10.41C84.7545 9.59112 84.9386 10.068 85.097 10.1308C85.4349 9.91215 84.9666 9.10493 84.6241 9.66324C84.3514 10.1099 84.3678 10.7054 84.2513 10.8799M72.9067 17.0654C72.7949 17.2678 72.3638 17.4306 72.1308 17.5469C72.0213 17.6004 71.3317 17.8819 71.306 18.0098C71.6532 18.0727 72.1635 17.9261 72.4896 17.854C72.8741 17.7679 72.9347 17.6725 73.2282 17.2119C74.0973 15.8464 72.8205 16.3978 72.3126 16.0256C72.3032 15.8162 72.5945 15.5859 72.7576 15.4905C72.9883 15.3533 72.916 15.5743 73.0721 15.5812C73.191 15.5859 73.2818 15.423 73.3238 15.3253C73.6709 14.5042 73.0745 14.1832 72.1704 15.5301C71.9398 15.8743 71.5437 16.6723 72.0609 16.9235C72.3405 17.0584 72.6877 16.977 72.909 17.0677M82.6599 17.9726L84.2419 17.0887C84.5076 16.9467 84.7755 16.8095 85.0411 16.6629C85.2671 16.5373 85.6189 16.3419 85.8543 16.2512C85.6096 16.8025 85.365 17.2073 85.3883 17.9424C85.4092 18.6891 86.0919 18.6472 86.2061 17.6144C86.0803 17.6563 85.9521 18.1657 85.6935 17.9168C85.4279 17.6586 85.7564 16.7281 85.8589 16.4094C85.9405 16.1581 85.8473 16.2372 86.3832 15.9697C86.6185 15.8511 88.7387 14.7996 88.9648 14.7461L89.0393 14.3181C88.8529 14.3669 87.5761 14.9787 87.3175 15.1067C85.9381 15.779 84.9433 16.314 83.6175 17.0351C83.4847 17.1073 83.3496 17.198 83.2237 17.2654C82.8649 17.4562 82.7321 17.4748 82.6599 17.968M52.7223 14.3041C52.8574 14.2553 53.0928 14.0971 53.2326 14.0133C53.391 13.918 53.5681 13.8249 53.7312 13.7295C54.8705 13.0782 57.8203 11.5359 58.8804 11.0613C59.4046 10.8264 59.9405 10.5495 60.4811 10.3146C60.6372 10.2471 60.6162 10.2681 60.6465 10.0889C60.6651 9.9703 60.6931 9.85864 60.7001 9.73302C60.3855 9.80049 56.9721 11.4893 56.4549 11.7638C55.7047 12.157 53.5471 13.2945 52.932 13.7133C52.8062 13.7993 52.7549 14.111 52.7223 14.3041ZM70.1341 17.3399C70.1341 17.8726 70.0502 18.6263 70.0758 18.9264C70.4043 18.7705 70.6676 17.1352 70.6676 16.6374L70.2902 10.7496C70.4789 10.8217 70.5721 11.1102 70.7795 11.1102C70.8587 10.9008 70.3158 9.60741 70.1853 9.26312C70.1271 9.11424 70.0176 8.75367 69.9197 8.67923C69.7939 8.76065 69.6052 9.31197 69.5632 9.51668C69.5259 9.6958 69.6238 9.82142 69.6588 9.99822C69.6937 10.1704 69.703 10.3565 69.7077 10.5449C69.731 11.7918 69.9057 13.7435 69.9966 15.0485C70.0479 15.7743 70.1341 16.6141 70.1341 17.3399ZM34.2295 9.70046C34.2295 9.75861 34.3343 10.0447 34.3553 10.168L34.4578 11.9127C34.5067 12.6897 34.5603 13.4574 34.6139 14.2297C34.6675 14.9997 34.7234 15.772 34.7747 16.5466C34.8236 17.3073 34.9354 18.3797 34.9121 19.1241C34.9005 19.5056 34.8306 20.0221 34.8492 20.3803C34.9494 20.3384 34.9564 20.2942 35.017 20.15C35.6228 18.717 35.4387 17.4981 35.3409 16.0023L35.0915 12.5618C35.0659 12.2268 34.9448 11.0683 34.989 10.8264C35.1358 10.8729 35.2383 11.1916 35.4737 11.1869C35.4876 10.8473 35.0286 9.75163 34.8609 9.32593C34.7933 9.15611 34.7024 8.83741 34.5906 8.76297C34.4904 8.84207 34.2295 9.51901 34.2295 9.70046ZM92.6997 19.0101C92.6997 19.5103 92.6088 20.1337 92.6414 20.492C92.8115 20.4012 93.0119 19.6964 93.0725 19.4358C93.3427 18.2937 93.2076 17.2957 93.1261 16.1395L92.8791 12.685C92.8581 12.378 92.7486 11.1381 92.7672 10.931C92.9047 10.9822 93.2635 11.5103 93.2635 11.2265C93.2635 10.9799 92.963 10.2681 92.8698 10.0145C92.7882 9.79351 92.504 8.95838 92.3851 8.86533C92.2686 8.9421 91.9867 9.66324 92.0263 9.86329C92.0683 10.0634 92.1382 10.175 92.1615 10.4309C92.1801 10.6519 92.1778 10.8868 92.1894 11.1102C92.2407 11.9988 92.3036 12.8642 92.3595 13.7505C92.4131 14.6135 92.4853 15.4882 92.5412 16.3536C92.5855 17.0328 92.6997 18.4007 92.6997 19.0101ZM65.5394 17.1584C65.2971 17.3957 63.8315 18.0913 63.277 17.6842C63.058 17.5237 63.0487 17.2352 62.8623 17.07C62.7341 17.1677 62.6526 17.5841 62.599 17.7795C62.5151 18.0889 62.7015 18.303 62.8017 18.5472C62.9159 18.824 63.2793 19.8825 63.1489 20.1802C63.1232 20.2384 62.9718 20.4175 62.9322 20.4571L62.0957 21.1596C61.3152 21.7528 60.4624 22.346 59.4932 22.6228C58.8035 22.8205 58.3515 22.7764 57.9274 22.3693C57.5803 22.0343 57.3729 21.4969 57.4498 20.8456C57.5174 20.278 57.797 19.3637 57.797 19.1544C57.6944 19.1869 57.6758 19.28 57.6036 19.4614C57.2471 20.3501 56.9978 21.6249 57.289 22.5344C58.1092 25.1142 61.1987 23.0415 62.4522 21.9296C63.3958 21.0921 63.4704 20.2128 63.482 18.8473C63.9271 18.938 64.3907 18.7845 64.7565 18.6379C65.1806 18.4658 65.5604 18.2099 65.7794 18.1238C66.0753 19.0101 67.5944 20.05 68.0161 18.6356C68.1932 18.0401 68.0324 17.3492 67.7086 17.0026C67.4103 16.6839 66.9607 16.7048 66.4993 16.8048C66.3549 16.8374 66.2151 16.9002 66.0963 16.9235C65.7258 16.3652 65.4625 11.6848 65.4625 10.6845C65.5674 10.7217 65.5161 10.6914 65.5907 10.7822C65.6256 10.824 65.6489 10.8566 65.6862 10.8938C65.7514 10.9636 65.8236 11.0497 65.9378 11.052C66.0264 10.8194 65.3507 9.19333 65.1666 8.75367C65.1293 8.66295 65.141 8.67458 65.0757 8.62805C64.9522 8.70249 64.7262 9.39804 64.7146 9.5004C64.6983 9.62834 64.7938 9.83073 64.8218 9.98193C64.8544 10.1587 64.8614 10.3634 64.866 10.5612C64.8917 12.1733 65.0571 14.5298 65.3274 16.1209C65.3763 16.4164 65.4462 16.8956 65.5371 17.1491M66.5273 17.8447C66.7416 17.8075 66.9746 17.7749 67.182 17.8354C67.3568 17.8866 67.5292 17.9796 67.5129 18.1773C67.3265 18.3332 66.7906 18.2611 66.5273 17.8447ZM71.4668 19.8918C70.7445 19.8918 70.2063 19.8755 69.5632 19.4963C69.2883 19.3335 68.792 18.9008 68.792 18.4286C68.792 17.3631 69.258 16.9421 69.2184 16.535C69.053 16.5955 68.8223 17.1491 68.7408 17.3725C68.5427 17.9121 68.5264 18.2495 68.5264 18.7938C68.5264 20.0918 69.5795 20.9688 70.8936 20.9688H71.2594C72.6527 20.9688 74.1206 20.1151 75.1854 19.4591C75.4137 19.3172 75.5978 19.1334 75.8005 18.9799C76.4948 18.4472 76.5088 17.8028 76.637 17.6214C76.7185 18.51 76.7255 20.2989 78.0676 20.2989C78.4054 20.2989 78.6384 20.2873 78.939 20.0546C79.1417 19.8964 79.2349 19.7987 79.3817 19.5847C79.5191 19.3823 79.9618 18.5868 80.076 18.4914C80.295 18.6961 80.2111 19.3637 81.3668 19.9546C82.802 20.6874 84.878 20.4641 86.3738 20.0035C86.8049 19.8685 87.4666 19.6243 87.8813 19.4265C88.0211 19.3591 88.2308 19.2079 88.3636 19.2218C88.4335 19.6173 88.4405 19.7499 88.6875 19.9918C88.9205 20.2244 89.2444 20.2803 89.6265 20.2803C90.195 20.2803 90.661 19.6661 90.8427 19.2544C91.4042 17.968 91.2481 16.7606 91.1572 15.3858L90.9499 12.4966C90.9196 12.0639 90.8147 11.2916 90.8567 10.8915C90.9429 10.9404 91.3413 11.4893 91.3413 11.1451C91.3413 10.952 90.5957 8.9514 90.4629 8.82578C90.3581 8.88627 90.1251 9.54227 90.1041 9.69348C90.0855 9.8284 90.1857 10.0308 90.2136 10.1983C90.2439 10.3821 90.2532 10.5775 90.2555 10.7798C90.2695 11.8988 90.4652 14.218 90.5608 15.4207C90.5911 15.8092 90.6144 16.1814 90.64 16.5629C90.6866 17.2585 90.7122 17.5376 90.7122 18.2239C90.7122 18.617 90.6656 18.7752 90.407 18.9473C89.976 19.2335 89.2047 19.3777 88.9018 18.952C88.7224 18.7007 88.8972 18.3797 88.8366 18.1331C88.7201 18.1355 88.0118 18.4704 87.8324 18.5426C86.6861 18.9985 85.5514 19.287 84.2815 19.3428C83.4498 19.38 82.371 19.3707 81.7 19.0334C81.206 18.7868 80.7074 18.5193 80.549 18.0215C80.4884 17.8261 80.507 17.5423 80.4371 17.405C80.2624 17.3701 80.2298 17.4957 80.1552 17.5981C79.5168 18.4635 79.2325 19.2381 78.1514 19.2381C77.2031 19.2381 77.2055 17.9936 77.1542 17.1631C77.0913 16.1907 77.0936 15.1928 77.0424 14.2041C76.9934 13.2317 76.9562 12.3035 76.8164 11.3637C76.7185 10.7007 76.4995 9.33756 76.2595 8.82578C76.1337 8.87463 76.1314 8.98862 76.0918 9.19333C75.9426 9.94006 75.9706 9.83771 76.0894 10.5821C76.4389 12.7665 76.4995 14.225 76.5344 16.4838C76.5461 17.2864 76.4156 17.4655 75.9263 17.9819C75.7003 18.2192 74.9361 18.7031 74.6798 18.8473C73.8946 19.2846 72.5572 19.9011 71.4784 19.9011M0.118929 15.8743L0.0769893 16.221C0.0024308 16.8444 0.233096 17.1817 0.517351 17.0933C0.447452 17.2422 0.382213 17.3957 0.326294 17.5586C0.132908 18.1262 0.0280603 18.6821 0.00476075 19.3219C-0.0395084 20.5222 0.296005 21.5993 1.46797 22.0529C2.99176 22.6414 5.61995 21.4178 6.91075 20.4873C7.01326 20.4129 7.10413 20.3617 7.2183 20.2733C7.27422 20.2291 7.31383 20.1965 7.36276 20.157L7.52119 20.0383C7.46761 20.3245 7.36043 20.606 7.29985 20.9246C7.15306 21.7179 7.06219 23.0811 7.94991 23.3416C8.572 23.5254 9.17313 23.1067 9.60417 22.8857C9.90008 22.7322 10.7482 22.1413 10.9369 22.0645C10.9998 22.1739 11.0604 22.4879 11.1489 22.6507C11.9691 24.1884 13.8004 23.4905 14.8769 22.7066C15.5642 22.2087 16.4263 21.4504 16.9365 20.806C17.3 20.3454 17.54 19.715 17.5656 19.0892C17.745 18.9915 18.1877 18.831 18.4091 18.7356L20.6202 17.7726C20.3895 18.4169 20.089 19.5149 20.3033 20.1756C20.3732 20.3943 20.5223 20.599 20.6994 20.7176C21.3215 21.1317 22.2558 20.8246 22.7964 20.3803C23.1855 20.0616 23.542 19.4521 23.7563 19.487C23.8682 19.7499 23.7167 20.1151 24.1524 20.4966C24.4087 20.7199 24.9213 20.7734 25.3057 20.6711C25.6645 20.578 25.9884 20.3524 26.1958 20.1547C26.7689 19.6103 26.5942 19.6941 26.8179 19.4451C26.8715 19.387 26.8179 19.4289 26.8878 19.387C26.967 20.0779 27.3025 20.6664 28.1063 20.5269C28.4465 20.4664 28.6842 20.2524 28.8356 20.0546C28.9242 19.9383 28.9964 19.8267 29.0663 19.6871C29.1315 19.5568 29.1828 19.3986 29.2667 19.3032C29.4321 19.508 29.481 20.0337 30.0053 20.2803C30.5458 20.5362 30.9396 20.3152 31.2634 20.0337C31.818 19.5475 32.1278 18.4332 32.1372 17.4725C32.1535 16.1721 31.9042 13.2759 31.7877 11.729C31.7714 11.5126 31.7224 11.1334 31.7504 10.9148C31.8902 10.9822 31.9717 11.2474 32.228 11.2823C32.2653 10.9752 31.9647 10.3239 31.8552 10.0285C31.7667 9.79583 31.4848 8.96769 31.359 8.85137C31.2401 8.91185 31.1236 9.3236 31.0747 9.46085C30.9186 9.89586 31.0258 9.79583 31.1003 10.1843C31.1399 10.3914 31.1819 11.5731 31.2029 11.9034C31.2681 13.041 31.3613 14.2553 31.4428 15.3905C31.4894 16.0465 31.7131 18.3216 31.5337 18.8194C31.4778 18.9752 31.1982 19.1288 31.0118 19.2079C30.5621 19.401 29.975 19.3684 29.7443 18.8799C29.5929 18.5588 29.7373 18.2913 29.6604 18.1052C29.4787 18.0866 29.4507 18.275 29.3622 18.4193C29.1385 18.7868 28.8752 19.2125 28.4069 19.394C27.9898 19.5545 27.6823 19.4963 27.4679 19.2242C27.0532 18.6891 27.4633 18.4821 27.3538 18.2448C27.1021 18.2727 26.5732 19.3056 25.6669 19.5731C25.2615 19.6941 24.7465 19.6848 24.4087 19.4684C23.8309 19.0939 24.2573 18.4867 24.1244 18.3727C23.8961 18.1704 23.2228 19.373 22.3164 19.6941C21.925 19.8313 21.3565 19.9244 20.9464 19.7732C20.1123 19.4684 20.7856 18.2029 20.8788 17.6656L22.4981 16.9607C22.7684 16.8397 23.1039 16.7467 23.2414 16.5303C23.3393 16.3768 23.6305 15.8976 23.6188 15.7301C23.3486 15.7255 21.6058 16.5722 20.993 16.7071C20.1309 16.8956 19.5927 16.6164 18.9683 16.1558C18.5652 15.8604 17.9594 15.0625 17.9105 14.5274C17.8918 14.3041 18.1831 14.1855 18.3788 14.0994C19.2315 13.7249 20.5456 13.5853 21.48 13.7226C21.7106 13.7575 22.0391 13.8645 22.2349 13.8714C22.1929 13.7388 22.151 13.7295 22.0461 13.6528C21.8248 13.4969 21.6058 13.348 21.3471 13.2317C20.5852 12.8874 19.6137 12.7595 18.8285 13.0619C17.2138 13.683 16.9901 15.5463 18.2064 16.8886C18.3368 17.0328 18.8145 17.4399 19.0568 17.5213C19.0312 17.5492 19.0451 17.5376 19.0079 17.5609C18.9123 17.6214 18.7795 17.6586 18.677 17.7005C18.5442 17.754 18.4161 17.8051 18.2856 17.8563C18.02 17.9633 17.7544 18.1052 17.4771 18.1448C17.4212 17.9354 17.1928 17.619 17.074 17.4469C15.7622 15.5417 14.2361 18.4728 15.2427 19.0939C15.7436 19.4056 16.5148 19.3172 17.0926 19.1962C17.1998 19.7592 17.0973 19.729 16.82 20.0639C16.6663 20.25 16.4053 20.5222 16.2143 20.6827L15.5479 21.2433C14.8279 21.7714 14.0264 22.339 13.0921 22.4856C12.2906 22.6112 11.5986 22.3251 11.354 21.7993C11.3773 21.7668 11.354 21.7854 11.4052 21.7435C11.4402 21.7133 11.4169 21.7365 11.4518 21.7109L12.6075 20.8874C13.0642 20.5385 13.3507 20.2873 13.4719 19.615C13.5441 19.2032 13.5395 18.7403 13.388 18.3681C13.2436 18.0145 12.9826 17.847 12.6494 17.6749C12.3395 17.5167 12.0087 17.3631 11.6872 17.2026C11.2864 17.0049 10.1773 16.4257 9.97464 16.0767C10.1797 16.0721 10.4569 16.1186 10.5804 15.9953C10.5408 15.7976 10.0003 15.5975 9.81387 15.5045C9.66941 15.4347 9.52961 15.3719 9.38516 15.3067C9.3106 15.2718 9.25002 15.2369 9.17546 15.2021C8.90286 15.0671 8.96344 15.3184 8.96344 15.5277C8.96344 16.3094 8.90985 16.0697 9.264 16.3629C9.42244 16.4955 9.49234 16.6281 9.61116 16.7723C9.84416 17.0561 10.1051 17.3027 10.401 17.5213C10.4732 17.5748 10.5455 17.6237 10.6294 17.6842C10.6923 17.7307 10.7738 17.7889 10.8484 17.8284C11.1746 18.0052 11.4961 18.1657 11.8479 18.3402C12.1065 18.4681 13.6 19.0869 13.1737 19.5242C13.0129 19.6894 11.4355 20.8014 11.1699 20.9153C11.1699 20.2151 11.5287 19.4614 11.5357 18.9752C11.4355 19.0055 11.4285 19.0799 11.3796 19.1939C11.347 19.2707 11.3167 19.3498 11.2841 19.4358C11.2212 19.601 11.1676 19.7732 11.1186 19.9476C11.0068 20.3361 10.9579 20.6874 10.9113 21.0991C10.8018 21.1433 10.641 21.2666 10.5268 21.3341C10.1377 21.569 9.74164 21.8226 9.32225 22.0064C8.76306 22.2529 7.90797 22.6275 7.56546 21.8807C7.42334 21.5713 7.48392 21.1247 7.53983 20.799C7.57012 20.6176 7.71691 19.9034 7.78215 19.7918C7.8171 19.7313 7.87535 19.6987 7.93593 19.6313C7.9802 19.5824 8.02912 19.5219 8.07106 19.4545C8.3227 19.052 8.47182 18.4425 8.25979 17.9889C7.97088 17.3678 6.33758 17.3329 5.57801 16.9188C5.18891 16.7048 5.2425 16.5071 5.44986 16.1349C5.74577 15.6045 6.12322 15.1323 6.56824 14.7508C6.63581 14.6926 6.65678 14.6554 6.73367 14.6019C6.8059 14.5554 6.84551 14.5251 6.91541 14.4716C7.02491 14.3902 7.17869 14.3041 7.34412 14.2716C7.8404 14.1692 7.83574 14.6833 7.98486 14.788C8.15494 14.7322 8.26911 14.4437 8.29707 14.2157C8.32969 13.9412 8.30173 13.6644 8.16892 13.4713C7.40237 12.3524 5.20988 14.9345 4.91397 16.6443C4.80214 17.2934 4.86272 17.619 5.27279 17.9238C5.82266 18.3285 7.85671 18.4891 7.86603 18.8287C7.76351 19.152 5.98342 20.1105 5.48714 20.3408C4.62506 20.7386 3.54396 21.1643 2.4349 21.1363C1.29323 21.1084 0.54065 20.3919 0.384543 19.3405C0.184167 17.975 1.02994 16.7769 1.10683 16.2628C1.15343 16.1209 1.19537 15.9627 1.23032 15.7836C1.10683 15.8697 1.12314 15.893 1.00897 16.0651C0.929753 16.1861 0.878494 16.2931 0.750346 16.328C0.363574 16.4303 0.403183 15.8348 0.442792 15.5184C0.53366 14.7647 0.957712 14.0575 1.13246 13.3946L0.964702 13.6086C0.619869 14.2018 0.205137 15.1788 0.121258 15.8743M16.5964 18.2541C16.3447 18.3006 16.0651 18.3425 15.7972 18.296C15.5898 18.2588 15.2986 18.0843 15.5013 17.8656C15.732 17.6167 16.2935 17.7516 16.5964 18.2541ZM52.0932 12.7106C52.2703 12.5408 52.5848 11.8383 52.3658 11.5545C52.1282 11.2428 51.4362 11.4242 51.0913 11.5545C50.39 11.8267 49.5792 12.3524 49.0596 12.7292C48.575 13.0805 47.7036 13.7458 47.3098 14.2087C46.7972 14.8112 45.341 16.7537 46.965 17.2003C48.1509 17.5283 50.2432 17.2934 51.4315 17.1724C53.377 16.9723 55.3365 16.7606 57.3053 16.6025C58.44 16.5117 59.8333 16.4606 60.5999 17.2608C60.6395 17.3027 60.9564 17.6423 60.9144 17.7191C60.8748 17.7889 59.6889 17.8796 59.5118 17.9005C56.6157 18.2401 53.7941 18.6589 50.9096 18.9706C49.5652 19.1171 46.1472 19.3195 44.9589 18.8147C44.4253 18.5868 43.9547 18.1727 43.6634 17.6842C43.5935 17.5655 43.4444 17.2445 43.3885 17.191C43.2813 17.2259 43.251 17.3213 43.2114 17.4585C43.0483 18.0168 43.039 18.1541 43.2231 18.517C43.4118 18.8892 43.6075 19.3335 43.717 19.7685C43.8685 20.3803 43.8149 20.4524 43.2953 20.9246L42.3051 21.6807C41.5781 22.1808 39.4765 23.4835 38.6005 22.5577C38.3046 22.246 38.0506 21.8691 38.0622 21.3783C38.2789 21.3155 38.5818 21.1363 38.7869 21.034C39.2971 20.7827 40.2804 20.164 40.6997 19.7662C41.0259 19.4521 41.4011 19.0427 41.4034 18.3588C41.4081 17.5865 41.0166 17.4678 40.3712 17.2794C39.826 17.1212 39.2179 17.0538 38.7286 16.8095C38.4886 16.6885 38.2207 16.5559 38.3814 16.2023C38.6424 15.6301 39.3088 14.8275 39.7771 14.446C40.7929 13.6179 40.8792 14.4972 41.0376 14.6298C41.2053 14.5833 41.3218 14.2832 41.3475 14.0622C41.4081 13.5527 41.2123 12.9712 40.6555 13.034C40.3339 13.0712 40.045 13.3155 39.812 13.4899C39.7095 13.5667 39.6652 13.6225 39.579 13.6993C39.1084 14.1203 38.7682 14.6042 38.4537 15.1509C38.2533 15.4998 38.0646 15.9744 37.9784 16.421C37.8479 17.1026 37.8991 17.4213 38.3115 17.747C38.8964 18.2122 40.4924 18.2239 40.9118 18.6077C40.9933 18.7752 40.4714 19.0776 40.3549 19.1544C40.1266 19.3032 39.9192 19.4265 39.6769 19.5731C39.381 19.7499 38.5352 20.2338 38.2067 20.3128C38.2533 20.036 38.4444 19.5289 38.4257 19.3009C38.2114 19.4126 38.0506 20.2826 37.9784 20.3989C37.9294 20.478 37.538 20.592 37.4262 20.6315C36.2985 21.0293 34.6535 21.2689 33.887 20.2384C32.687 18.6263 34.1363 16.6118 34.1712 16.0721C34.0687 16.0674 34.0221 16.1581 33.9662 16.2396C33.9079 16.328 33.8707 16.3838 33.8147 16.4792C32.7569 18.2588 32.4377 21.8528 35.2663 22.0343C36.3567 22.1064 36.9718 21.7458 37.8036 21.5039C37.75 22.5623 38.0785 23.4766 38.8218 23.7999C39.7678 24.2093 41.1587 23.4835 41.902 22.988C42.6802 22.4693 43.5796 21.7877 43.9966 20.9386C44.2692 20.3826 44.1621 20.1454 44.225 19.5335C44.3811 19.5987 44.5418 19.7034 44.7282 19.7825C44.9076 19.8592 45.094 19.9267 45.2921 19.9755C46.4081 20.2617 48.363 20.2384 49.4744 20.1337C51.2801 19.9662 53.0438 19.7336 54.8309 19.4893C56.7997 19.2195 58.8291 18.9334 60.7886 18.6961C61.1148 18.6565 61.1101 18.6333 61.2546 18.403C62.0165 17.1864 61.1521 16.1861 60.0058 15.7766C59.0971 15.451 58.3165 15.4975 57.3193 15.5696C56.4199 15.6347 55.488 15.7348 54.5933 15.8418C52.7759 16.0581 49.3975 16.5071 47.6686 16.221C47.4473 16.1837 46.5945 16.0395 46.746 15.6929C46.8555 15.4486 47.9203 14.4902 48.2721 14.218C48.8266 13.7854 49.3532 13.3783 50.0452 12.9921C52.014 11.8964 51.7764 12.6199 52.1049 12.706M38.0156 11.8546C37.9574 11.8918 37.99 11.8522 37.9551 11.9267C37.8968 12.05 37.8875 12.4734 37.6615 12.6502C37.5613 12.7292 37.3376 12.7874 37.2584 12.6641C37.1675 12.5269 37.277 12.2942 37.2444 12.1291C36.9136 12.2873 36.7342 13.5597 37.559 13.148C37.6615 13.0968 37.6731 13.0642 37.7547 13.0037C37.8712 12.9177 37.8898 12.9712 38.0389 12.9712C38.8008 12.9712 39.1061 11.8313 38.8008 11.4963C38.7239 11.5522 38.5655 11.8011 38.6005 11.9151C38.6494 12.0825 38.8661 12.3128 38.3581 12.4594C38.3209 12.471 38.2533 12.485 38.2183 12.485C38.1018 12.485 38.1251 12.5036 38.0949 12.4222C38.025 12.2384 38.1671 11.9779 38.0133 11.8499M38.4513 10.2518C38.3675 10.3495 38.2836 10.4193 38.1974 10.5146C38.0949 10.6263 38.0506 10.6798 37.9364 10.7775C37.7407 10.9497 37.5496 11.1078 37.34 11.2684C37.1582 11.4056 36.1773 12.1174 36.1284 12.2454C36.4476 12.1802 37.3842 11.615 37.6149 11.4382C37.8619 11.2474 38.3978 10.738 38.5585 10.4704C38.6074 10.389 38.5981 10.3844 38.6657 10.3099C38.8102 10.3797 38.8544 10.389 38.9686 10.5007C38.9733 10.496 38.9802 10.4798 38.9826 10.4844C38.9942 10.503 39.148 10.2076 39.1527 10.0936C39.1596 9.95867 38.9802 9.89354 38.8218 9.83305C38.8311 9.57251 38.936 9.24684 38.7985 8.97001C38.5702 8.51407 37.8176 9.23288 37.9061 9.75861C37.9341 9.92145 38.0436 9.99357 38.1298 10.054C38.1717 10.0843 38.2253 10.1238 38.2859 10.1541C38.3139 10.168 38.3418 10.175 38.3721 10.1913L38.4537 10.2541L38.4513 10.2518ZM38.1787 9.48644C38.237 9.24684 38.6797 9.12587 38.6051 9.70278C38.4979 9.76094 38.2463 9.59112 38.1787 9.48644Z" fill="#737389"/>
<path d="M41.6526 26.9031C41.557 26.5775 41.4149 26.2239 40.9466 26.2239C40.6204 26.2239 40.4456 26.4588 40.4456 26.7333C40.4456 27.0357 40.646 27.2055 41.0794 27.4242C41.6432 27.708 41.9578 27.9593 41.9578 28.4501C41.9578 29.0224 41.4755 29.4457 40.7765 29.4457C40.4596 29.4457 40.1824 29.3597 39.9564 29.2852C39.9214 29.1596 39.8468 28.699 39.8096 28.4501L39.9936 28.4059C40.0938 28.7316 40.3548 29.241 40.8604 29.241C41.1889 29.241 41.387 29.0293 41.387 28.7037C41.387 28.378 41.1959 28.2128 40.7649 27.9802C40.2383 27.6964 39.9098 27.4475 39.9098 26.9427C39.9098 26.4379 40.3105 26.0215 41.0351 26.0215C41.3613 26.0215 41.6293 26.0959 41.7364 26.1122C41.7574 26.2983 41.7877 26.5379 41.8273 26.8589L41.6479 26.8985L41.6526 26.9031Z" fill="#737389"/>
<path d="M44.1899 29.3713V29.1991C44.5114 29.1549 44.5254 29.1014 44.4532 28.8944C44.3973 28.7269 44.3111 28.492 44.2225 28.25H43.1997C43.1368 28.4315 43.0645 28.6246 43.0063 28.799C42.8991 29.12 43.0016 29.1619 43.407 29.2015V29.3736H42.1885V29.2015C42.5077 29.1619 42.5869 29.12 42.7616 28.685L43.8101 26.0657L44.0245 26.0261C44.346 26.8985 44.6908 27.8127 45.0147 28.6664C45.1918 29.1247 45.2384 29.1619 45.5762 29.2015V29.3736H44.1876L44.1899 29.3713ZM43.7239 26.8636C43.5725 27.2521 43.4187 27.6312 43.2859 28.0104H44.1386L43.7262 26.8636H43.7239Z" fill="#737389"/>
<path d="M48.463 29.3713V29.2015C48.8568 29.162 48.8778 29.1271 48.8778 28.6432V26.6473C48.4956 27.5336 48.0017 28.6595 47.7035 29.3736H47.5497C47.2771 28.6781 46.8437 27.5848 46.4732 26.6915C46.3987 28.3385 46.3987 28.6804 46.3987 28.8316C46.4033 29.1061 46.5129 29.1666 46.881 29.2015V29.3713H45.6484V29.2015C45.9374 29.1736 46.0655 29.1178 46.1051 28.8246C46.1284 28.6479 46.1447 28.3989 46.2659 26.6729C46.2822 26.424 46.2426 26.3053 45.8045 26.2658V26.0959H46.8204L47.8456 28.4362L48.9011 26.0959H49.9029V26.2658C49.4882 26.31 49.4393 26.3518 49.4486 26.738L49.4812 28.6432C49.4905 29.1271 49.5092 29.1503 49.9309 29.2015V29.3713H48.463Z" fill="#737389"/>
<path d="M52.0954 29.3713V29.1991C52.4169 29.1549 52.4309 29.1014 52.361 28.8944C52.3051 28.7269 52.2166 28.492 52.1304 28.25H51.1098C51.0446 28.4315 50.9747 28.6246 50.9164 28.799C50.8093 29.12 50.9118 29.1619 51.3172 29.2015V29.3736H50.0986V29.2015C50.4155 29.1619 50.4971 29.12 50.6718 28.685L51.7203 26.0657L51.9346 26.0261C52.2562 26.8985 52.601 27.8127 52.9249 28.6664C53.1019 29.1247 53.1485 29.1619 53.4864 29.2015V29.3736H52.0977L52.0954 29.3713ZM51.6294 26.8636C51.478 27.2521 51.3242 27.6312 51.1914 28.0104H52.0441L51.6317 26.8636H51.6294Z" fill="#737389"/>
<path d="M38.4839 27.5475H0V27.9243H38.4839V27.5475Z" fill="#737389"/>
<path d="M93.0815 27.5475H54.5977V27.9243H93.0815V27.5475Z" fill="#737389"/>
<path fill-rule="evenodd" clip-rule="evenodd" d="M133.984 11.7732C133.721 11.7779 133.509 11.9965 133.516 12.2617C133.523 12.5269 133.739 12.7363 134.005 12.7293C134.268 12.7247 134.478 12.5037 134.473 12.2408C134.469 11.9779 134.25 11.7686 133.984 11.7732ZM134.809 5.18061C134.546 5.18526 134.336 5.40625 134.341 5.66912C134.345 5.93199 134.564 6.14368 134.83 6.1367C135.093 6.13205 135.305 5.91338 135.298 5.64819C135.294 5.38532 135.075 5.17596 134.811 5.18061M115.093 6.33908C115.37 6.56473 115.701 6.75781 115.997 6.94391C116.475 7.244 117.239 7.70692 117.36 8.30244C117.376 8.38386 117.381 8.46528 117.374 8.5467L117.367 8.63045L117.283 8.64906C117.106 8.68628 116.759 8.47459 116.612 8.38619C116.286 8.19078 115.969 7.96746 115.661 7.74647C115.379 7.54408 115.1 7.33472 114.827 7.12071C114.673 7.00207 114.517 6.8811 114.368 6.75548C113.935 6.98811 113.513 7.22539 113.091 7.47895L113.646 7.95583L114.196 7.63481L115.806 8.74211C116.092 8.94914 116.388 9.14688 116.68 9.34926C116.982 9.55862 117.295 9.77962 117.579 10.0169V9.85871C117.598 9.67959 117.691 9.5121 117.782 9.36089C117.882 9.19805 117.987 9.0422 118.066 8.87005C118.29 8.39084 118.189 7.97444 117.914 7.53943C117.544 6.95089 116.794 6.64615 116.272 6.20649L116.214 6.15764L116.232 6.08785C116.309 5.81335 116.43 5.57374 116.523 5.31088C116.68 4.87354 116.635 4.51065 116.486 4.09192C116.449 4.10355 116.407 4.11518 116.372 4.12914C113.877 4.97822 111.579 6.30186 109.587 8.02562C109.226 8.33734 108.879 8.66069 108.541 8.998L108.872 9.77031C109.263 9.36787 109.673 8.98171 110.097 8.61184C111.628 7.28587 113.355 6.20183 115.216 5.40393C115.286 5.37369 115.356 5.34345 115.426 5.3132L115.594 5.24342L115.587 5.42719C115.57 5.75985 115.344 6.10646 115.088 6.33908M128.108 41.4958C128.478 41.3749 128.854 41.2632 129.219 41.1283C131.999 40.114 134.494 38.46 136.503 36.2896C136.813 35.9547 137.192 35.9896 137.533 36.2431L137.635 36.3199L136.992 37.0224C134.872 39.2556 132.262 40.9585 129.357 41.989C128.52 42.2867 127.651 42.5263 126.787 42.7264L126.675 42.752L126.302 41.2795C126.079 41.6354 125.696 41.9774 125.37 42.2193C125.794 42.545 126.027 43.3056 126.109 43.7779C126.153 44.0407 126.202 44.3618 126.174 44.6293C126.155 44.7991 126.107 44.948 125.976 45.0666C125.918 45.1178 125.853 45.1573 125.783 45.1922C126.132 45.2015 126.524 45.1597 126.74 44.941C127.05 44.6246 126.948 44.0035 126.859 43.622L126.833 43.5104L126.945 43.4848C127.796 43.2777 128.644 43.0637 129.471 42.7776C132.309 41.7936 134.888 40.1931 137.034 38.0902C137.318 37.811 137.598 37.5226 137.866 37.2271C138.122 36.9433 138.367 36.6525 138.607 36.3525L137.938 35.7104C137.321 35.087 136.575 35.187 136 35.8058C134.226 37.718 132.062 39.2231 129.648 40.2164L129.168 40.4141L129.28 40.1536C129.511 39.6162 129.685 39.016 129.804 38.4182C129.583 38.8602 129.355 39.2998 129.119 39.7348C128.912 40.1187 128.702 40.5025 128.481 40.8794C128.36 41.0864 128.236 41.2934 128.106 41.4958M125.331 39.4534C125.065 39.458 124.855 39.6767 124.862 39.9419C124.867 40.2071 125.086 40.4164 125.352 40.4095C125.615 40.4048 125.825 40.1861 125.82 39.9233C125.815 39.6581 125.596 39.4487 125.333 39.4557M138.742 19.5871C139.131 19.8919 139.518 20.2036 139.898 20.5199C140.235 20.7968 140.569 21.0806 140.895 21.3714C141.074 21.5295 141.254 21.6924 141.426 21.8622C141.382 21.476 141.344 21.0852 141.286 20.7014C140.841 17.7796 139.713 15.009 137.982 12.613C137.717 12.2431 137.826 11.8779 138.143 11.5964L138.236 11.5104L138.8 12.278C140.68 14.9509 141.859 18.0425 142.23 21.2876C142.297 21.8808 142.316 22.4577 141.955 22.9206L143.113 22.8602C143.087 22.3274 143.071 21.7924 143.013 21.262C142.663 18.1146 141.582 15.1021 139.856 12.4478C139.637 12.1129 139.411 11.7825 139.173 11.4615C138.765 10.9125 138.327 10.3961 137.873 9.88197C137.658 9.64004 137.442 9.40044 137.213 9.17247C136.568 8.52809 135.892 7.92327 135.168 7.36962C134.688 7.00207 134.189 6.65778 133.681 6.3321C133.22 6.03667 132.749 5.75985 132.262 5.50628C131.759 5.24342 131.242 5.00614 130.722 4.77584L129.725 8.17915C129.643 8.46063 129.576 8.73978 129.504 9.02126C129.469 9.15851 129.427 9.32135 129.322 9.4237C129.226 9.51442 129.047 9.56095 128.891 9.59817C129.154 10.0727 129.417 10.5473 129.683 11.0195C130.177 9.33763 130.673 7.65807 131.17 5.97619L131.209 5.84126L131.333 5.9064C131.661 6.07389 131.987 6.24603 132.311 6.42516C132.591 6.58101 132.868 6.74385 133.143 6.90902L133.25 6.97183L131.878 8.93286C132.339 8.95147 132.607 9.01195 133.024 9.21666C133.015 9.15618 133.008 9.0957 133.001 9.03522C132.992 8.94217 132.985 8.84679 133.003 8.75374C133.036 8.59555 133.141 8.45133 133.232 8.32338C133.43 8.04656 133.635 7.77671 133.828 7.49756L133.893 7.39986L133.989 7.46732C134.632 7.92559 135.24 8.42574 135.841 8.93984L135.93 9.01661L134.289 10.8799C134.455 10.8985 134.616 10.9288 134.779 10.9776C135 11.0474 135.224 11.1475 135.438 11.2475C135.433 11.1963 135.429 11.1428 135.424 11.0893C135.417 11.0079 135.412 10.9265 135.433 10.8497C135.471 10.7031 135.599 10.5752 135.699 10.4682C135.948 10.203 136.198 9.94246 136.44 9.67028L136.517 9.58421L136.603 9.66098C137.025 10.0355 137.402 10.5031 137.77 10.9311L137.857 11.0311L137.745 11.1033C137.018 11.5755 136.906 12.3059 137.404 12.9992C138.928 15.1161 139.977 17.533 140.471 20.0919L140.569 20.6014L140.336 20.4409C139.853 20.1059 139.299 19.8174 138.737 19.5825M140.722 30.6368C140.925 30.3275 141.342 30.2391 141.654 30.4414C141.964 30.6438 142.053 31.0625 141.85 31.3719C141.647 31.6813 141.228 31.7697 140.918 31.5673C140.608 31.365 140.52 30.9486 140.722 30.6368ZM142.889 26.6124L139.942 26.5031C139.574 26.4891 139.206 26.4984 138.837 26.4891C138.611 26.4821 138.364 26.4682 138.162 26.3542C138.022 26.2751 137.919 26.1565 137.833 26.0239C137.456 26.3961 137.069 26.7543 136.682 27.1172C138.402 27.0474 140.133 27.2475 141.845 27.3708L141.978 27.3801L141.95 27.5104C141.803 28.1919 141.633 28.8666 141.421 29.5319L141.396 29.6133H141.31C140.832 29.604 140.382 29.8413 140.121 30.2414C139.751 30.8067 139.842 31.558 140.338 32.0186L140.401 32.0768L140.364 32.1536C140.082 32.7258 139.767 33.2771 139.441 33.8261L139.385 33.9192L137.999 33.2167C138.041 33.4214 138.073 33.647 138.08 33.8308C138.085 33.9704 138.078 34.1099 138.073 34.2495C138.073 34.3519 138.069 34.4635 138.073 34.5705C138.413 34.4891 138.751 34.5636 139.061 34.7404C139.259 34.8543 139.462 34.966 139.662 35.0777C139.807 35.1591 139.956 35.2428 140.096 35.3312C140.282 35.4475 140.482 35.5894 140.571 35.7965C140.669 36.0268 140.615 36.3478 140.559 36.613C140.706 36.5688 140.848 36.4525 140.934 36.3478C141.132 36.1105 141.214 35.8081 141.186 35.5034C141.158 35.1847 140.993 34.9427 140.762 34.7311C140.659 34.638 140.552 34.5566 140.443 34.4728C140.357 34.4077 140.256 34.3309 140.186 34.2449L140.138 34.1821L140.45 33.647C140.673 33.2562 140.885 32.8584 141.081 32.4536L141.116 32.3839L141.193 32.3885C141.692 32.4211 142.176 32.1815 142.451 31.7628C142.836 31.1742 142.721 30.3903 142.183 29.939L142.125 29.8901L142.148 29.8157C142.269 29.4458 142.377 29.0736 142.477 28.6991C142.582 28.2943 142.668 27.8895 142.742 27.4801C142.796 27.1893 142.845 26.9009 142.887 26.6101M143.078 24.7026C142.153 24.684 141.233 24.6351 140.31 24.6002C139.977 24.5862 139.648 24.5862 139.315 24.5839C139.161 24.5839 138.989 24.5839 138.847 24.5211C138.751 24.4816 138.67 24.4164 138.593 24.349C138.497 24.2676 138.404 24.1815 138.313 24.0977C138.222 24.1792 138.131 24.2606 138.041 24.3397C137.682 24.656 137.335 24.9817 136.99 25.3097L143.05 25.5144L143.08 24.7026H143.078ZM127.06 8.39084C127.33 8.91192 127.574 9.45394 127.863 9.96339C128.176 9.07244 128.483 8.17915 128.756 7.27424C128.861 6.92065 128.965 6.56938 129.073 6.21812C129.264 5.59468 129.464 4.97357 129.667 4.35246L128.868 4.09192L127.747 7.62085C127.684 7.81858 127.607 8.03493 127.439 8.16985C127.376 8.22103 127.304 8.26057 127.23 8.29779C127.171 8.32803 127.115 8.35828 127.057 8.38852M115.158 37.3528L114.736 35.6569C114.231 36.4153 113.73 37.176 113.257 37.9552C113.047 38.3019 112.842 38.6485 112.632 38.9951C112.304 39.5418 111.971 40.0861 111.633 40.6281L112.348 41.0724L114.303 37.939C114.419 37.7529 114.557 37.5505 114.764 37.4574C114.837 37.4249 114.911 37.4086 114.988 37.39C115.044 37.3783 115.1 37.3644 115.153 37.3528M109.086 12.4758C108.856 12.0547 108.665 11.6267 108.541 11.1661C108.073 11.7337 107.616 12.3152 107.199 12.9224C106.836 13.4505 106.505 13.9901 106.202 14.5578C106.088 14.7741 105.978 14.9904 105.871 15.2068C105.705 15.5441 105.253 15.4092 105.006 15.251L104.923 15.1951L104.967 15.1044C105.759 13.4458 106.735 11.9337 107.935 10.545C107.749 10.3635 107.565 10.1821 107.381 10.0006C106.393 11.1684 105.517 12.385 104.787 13.7319C104.482 14.2972 104.205 14.8764 103.951 15.4673C104.333 15.6999 104.773 15.9442 105.195 16.0745C105.452 16.1536 105.75 16.2001 106.004 16.0814C106.253 15.9628 106.414 15.7046 106.523 15.4627C106.605 15.2882 106.689 15.1161 106.777 14.9439C107.015 14.4856 107.276 14.0367 107.558 13.6017C107.77 13.276 108 12.9387 108.25 12.6386C108.317 12.5572 108.401 12.4967 108.504 12.4688C108.623 12.4385 108.746 12.4525 108.865 12.4641C108.942 12.4711 109.014 12.4781 109.089 12.4781M104.687 18.6124C104.629 18.9009 104.345 19.0893 104.054 19.0288C103.765 18.9707 103.576 18.6869 103.634 18.3961C103.692 18.1053 103.979 17.9192 104.268 17.9797C104.557 18.0378 104.746 18.3216 104.685 18.6124M105.915 18.766C105.866 18.7287 105.815 18.6985 105.757 18.6822C105.68 18.6613 105.605 18.6682 105.528 18.6706H105.454L105.421 18.6031C105.237 18.217 105.144 17.8378 104.78 17.5703C104.676 17.4935 104.559 17.4284 104.438 17.3772C104.226 17.2888 103.984 17.2446 103.755 17.2865C103.208 17.3888 102.993 17.9285 102.919 18.4217L102.9 18.5473L102.777 18.5194C101.88 18.3077 101.943 17.3772 102.036 16.6258C101.533 17.1469 101.176 17.8099 101.56 18.524C101.782 18.9334 102.199 19.2707 102.6 19.4987L102.672 19.5383L102.656 19.6197C102.406 20.9061 102.28 22.2158 102.28 23.5255C102.28 29.1038 104.54 34.3868 108.574 38.2437L108.63 38.2995C108.802 38.4624 108.977 38.6229 109.154 38.7787H109.156L109.24 38.8509C109.62 39.1882 110.007 39.5069 110.412 39.8116L112.688 36.271C112.807 36.0803 112.954 35.8872 113.178 35.8197C113.264 35.7942 113.359 35.7872 113.45 35.7872C113.38 35.5359 113.324 35.2777 113.264 35.0242C113.217 34.8195 113.171 34.6147 113.119 34.4124C113.103 34.3426 113.082 34.2728 113.063 34.2007C112.131 35.6476 111.193 37.0899 110.261 38.5391L110.188 38.6508L110.088 38.5647C109.771 38.2949 109.461 38.0181 109.158 37.7343C108.79 37.3876 108.441 37.0247 108.103 36.6502L108.021 36.5595L109.692 35.1963C109.473 35.0847 109.247 34.9427 109.054 34.8148C108.956 34.7497 108.856 34.6799 108.758 34.6101C108.76 34.638 108.762 34.6682 108.765 34.6962C108.772 34.7706 108.779 34.8474 108.753 34.9172C108.72 35.0079 108.644 35.0707 108.574 35.1265C108.441 35.2312 108.303 35.3312 108.171 35.4359C107.98 35.5871 107.793 35.7407 107.604 35.8919L107.514 35.964L107.441 35.8733C106.999 35.3312 106.586 34.7636 106.206 34.1774L106.141 34.0774L108.04 32.9352C107.751 32.7235 107.474 32.4769 107.222 32.2234C107.15 32.4723 106.943 32.6537 106.707 32.7979L105.722 33.3935L105.664 33.2911C105.344 32.7375 105.051 32.1652 104.787 31.5813L104.739 31.4743L106.784 30.5926C106.747 30.5554 106.705 30.5182 106.668 30.481C106.54 30.3623 106.416 30.246 106.302 30.1111C106.211 30.0064 106.13 29.8948 106.053 29.7808C106.048 29.7947 106.046 29.8064 106.041 29.818C105.98 29.9948 105.822 30.1041 105.668 30.1949C105.531 30.2763 105.384 30.3484 105.237 30.4158C105.009 30.5205 104.78 30.6206 104.55 30.7183L104.44 30.7648L104.396 30.6531C103.825 29.1922 103.431 27.6662 103.226 26.1123L103.203 25.9425L103.369 25.9867C103.946 26.1379 104.513 26.4473 105.037 26.7264C105.116 26.7683 105.195 26.8101 105.274 26.852L105.193 25.8122L103.751 25.3865L103.946 25.2492C104.126 25.1236 104.34 25.0213 104.543 24.9329C104.729 24.8491 104.92 24.7747 105.104 24.6909L105.023 23.6441C104.801 23.8116 104.585 23.9837 104.361 24.1489C104.051 24.3769 103.611 24.6886 103.238 24.791L103.103 24.8282L103.07 24.4141C103.056 24.1187 103.052 23.8232 103.052 23.5278C103.052 22.2972 103.166 21.0689 103.396 19.8593L103.417 19.7476L103.529 19.7662C104.268 19.8849 104.867 19.5755 105.393 19.0893C105.542 18.9521 105.724 18.8497 105.906 18.7636M117.432 41.5935C117.372 41.2446 117.248 40.8817 117.146 40.5467C116.98 40.007 116.708 39.1579 117.006 38.6299C117.048 38.5578 117.097 38.4949 117.155 38.4368L117.215 38.3786L117.29 38.4205C117.448 38.5042 117.572 38.8951 117.626 39.0556C117.742 39.4161 117.838 39.793 117.924 40.1629C118.005 40.5002 118.078 40.8398 118.145 41.1794C118.182 41.3702 118.222 41.5656 118.252 41.7564C118.732 41.8634 119.21 41.9587 119.692 42.0448L119.587 41.3213L118.961 41.205L118.471 39.3161C118.39 38.9718 118.299 38.6299 118.21 38.2856C118.119 37.9297 118.029 37.5621 117.97 37.1922L117.868 37.3086L117.863 37.3132C117.733 37.4365 117.553 37.504 117.386 37.5575C117.204 37.6156 117.022 37.6621 116.847 37.7412C116.365 37.9576 116.165 38.3368 116.088 38.8462C115.983 39.5325 116.349 40.2559 116.456 40.9282L116.468 41.0003L116.405 41.0422C116.167 41.1981 115.918 41.3004 115.673 41.4377C115.268 41.668 115.063 41.9704 114.899 42.3844C114.937 42.4007 114.974 42.4193 115.009 42.4333C117.453 43.4243 120.056 43.9268 122.691 43.9268C123.168 43.9268 123.644 43.9105 124.119 43.8779L124.378 43.0777C123.816 43.1265 123.255 43.1498 122.691 43.1498C120.664 43.1498 118.651 42.8404 116.719 42.2263C116.647 42.203 116.575 42.1797 116.502 42.1565L116.328 42.0983L116.454 41.9657C116.684 41.7238 117.083 41.6098 117.427 41.6005" fill="#737389"/>
<path d="M144.856 14.6577C143.644 11.8011 141.911 9.23292 139.704 7.02995C137.498 4.82698 134.925 3.09392 132.064 1.88659C129.1 0.635068 125.953 0 122.707 0C119.461 0 116.314 0.635068 113.35 1.88659C110.489 3.09392 107.917 4.82698 105.71 7.02995C103.504 9.23292 101.77 11.8011 100.559 14.6577C99.305 17.6167 98.6689 20.7595 98.6689 24C98.6689 27.2405 99.305 30.3832 100.559 33.3423C101.77 36.2012 103.501 38.7671 105.71 40.9724C107.919 43.1753 110.489 44.9061 113.35 46.1157C116.314 47.3673 119.461 48.0023 122.707 48.0023C125.953 48.0023 129.1 47.3673 132.064 46.1157C134.925 44.9061 137.498 43.1753 139.704 40.9724C141.911 38.7694 143.644 36.2012 144.856 33.3423C146.109 30.3832 146.745 27.2405 146.745 24C146.745 20.7595 146.109 17.6191 144.856 14.6577ZM122.705 0.602501C123.495 0.602501 124.273 0.642047 125.039 0.716487C124.888 1.86798 123.898 2.76127 122.705 2.76127C121.512 2.76127 120.522 1.86798 120.37 0.716487C121.139 0.642047 121.917 0.602501 122.705 0.602501ZM122.705 10.8543C121.901 10.8543 121.113 10.9264 120.351 11.0637C120.4 9.80983 121.437 8.80256 122.705 8.80256C123.972 8.80256 125.011 9.80983 125.058 11.0637C124.294 10.9264 123.509 10.8543 122.705 10.8543ZM127.595 12.4432C129.091 13.0759 130.436 13.9785 131.589 15.1323C132.742 16.2838 133.649 17.6261 134.282 19.1195C134.937 20.6665 135.268 22.3065 135.268 24C135.268 25.6935 134.937 27.3382 134.282 28.8828C133.651 30.3763 132.742 31.7185 131.589 32.87C130.436 34.0215 129.091 34.9264 127.595 35.5592C126.046 36.2129 124.401 36.5455 122.705 36.5455C121.009 36.5455 119.364 36.2152 117.814 35.5592C116.316 34.9264 114.974 34.0215 113.821 32.87C112.667 31.7185 111.761 30.3763 111.127 28.8828C110.472 27.3359 110.139 25.6935 110.139 24C110.139 22.3065 110.472 20.6641 111.127 19.1195C111.759 17.6261 112.665 16.2838 113.821 15.1323C114.974 13.9808 116.318 13.0759 117.814 12.4432C119.364 11.7895 121.009 11.4568 122.705 11.4568C124.401 11.4568 126.046 11.7895 127.595 12.4432ZM120.349 5.78308C120.349 4.48502 121.407 3.43123 122.705 3.43123C124.003 3.43123 125.06 4.48735 125.06 5.78308C125.06 7.0788 124.003 8.13492 122.705 8.13492C121.407 8.13492 120.349 7.0788 120.349 5.78308ZM122.705 47.3998C109.762 47.3998 99.2701 36.9247 99.2701 24.0023C99.2701 12.0756 108.21 2.23321 119.764 0.788601C119.895 1.81681 120.552 2.67752 121.458 3.09857C120.445 3.56848 119.741 4.59436 119.741 5.7854C119.741 6.97645 120.445 8 121.458 8.47223C120.445 8.94213 119.741 9.96801 119.741 11.1567C119.741 11.1684 119.741 11.18 119.741 11.1916C113.898 12.5339 109.538 17.761 109.538 24.0023C109.538 31.2626 115.433 37.1503 122.705 37.1503C129.977 37.1503 135.874 31.2626 135.874 24.0023C135.874 17.761 131.514 12.5339 125.671 11.1916C125.671 11.18 125.671 11.1684 125.671 11.1567C125.671 9.96801 124.967 8.94213 123.954 8.47223C124.967 8 125.671 6.97645 125.671 5.7854C125.671 4.59436 124.967 3.56848 123.954 3.09857C124.86 2.67752 125.517 1.81681 125.647 0.788601C137.202 2.23321 146.142 12.0756 146.142 24.0023C146.142 36.9247 135.65 47.3998 122.707 47.3998" fill="#737389"/>
<path fill-rule="evenodd" clip-rule="evenodd" d="M127.814 19.4102C127.926 19.5428 128.091 19.7382 128.105 19.7987V20.1221H127.507V19.801C127.507 19.7406 127.709 19.5219 127.814 19.4102ZM128.553 18.9566C128.921 18.6077 128.928 18.6286 128.926 18.2727V17.0351C128.926 16.2349 128.783 16.0814 129.296 15.8045L129.193 15.7208C128.469 15.2416 128.529 14.9531 128.11 14.5879C128.096 15.8418 128.117 16.5792 128.105 17.8377C128.105 17.9842 128.11 18.0912 128.105 18.175C128.105 18.3029 127.903 18.4402 127.809 18.5612C127.635 18.3704 127.504 18.2285 127.504 18.1843C127.504 18.0215 127.504 17.9517 127.504 17.5958C127.504 15.6905 127.502 16.0651 127.5 14.6368C127.085 15.0136 126.952 15.5044 126.332 15.751C126.372 15.8022 126.342 15.7696 126.386 15.8115C126.798 16.2233 126.689 15.558 126.689 16.5978V18.3774C126.689 18.6147 126.926 18.9031 127.122 19.0171L126.933 19.2055C126.826 19.3102 126.705 19.3521 126.705 19.5568V20.9246H128.923C128.923 20.5687 128.923 20.2151 128.923 19.8615C128.923 19.2567 128.863 19.2753 128.553 18.9566ZM124.296 20.799L125.109 20.806C125.193 20.3733 125.062 17.5655 125.125 16.3861C125.137 16.1698 125.223 15.9534 125.382 15.8324L125.538 15.7045C125.288 15.6068 124.981 15.3463 124.836 15.1904C124.627 14.9671 124.366 14.5623 124.296 14.5088V20.8013V20.799ZM123.364 20.799C123.418 20.4826 123.376 17.6911 123.376 16.8816C123.376 16.528 123.317 16.1232 123.471 15.8929C123.562 15.758 123.664 15.758 123.751 15.6394C123.504 15.4021 123.441 15.551 122.854 14.8205C122.795 14.7484 122.781 14.7321 122.74 14.6647L122.593 14.5018V19.9988L118.126 20.0034L118.119 17.1538C117.889 17.3817 117.378 17.7912 116.936 17.9121C116.943 17.9191 116.952 17.9261 116.957 17.9307L117.208 18.1285C117.392 18.3332 117.334 18.4448 117.32 18.7868C116.556 18.838 116.12 19.3916 116.12 20.1756C116.12 20.9107 116.057 20.806 116.437 20.8013C117.29 20.792 122.677 20.8409 123.364 20.7967M116.943 20.0034C116.957 19.7429 117.071 19.6219 117.325 19.5987L117.32 20.0034H116.943ZM128.874 23.5626C128.874 23.1834 129.061 23.0159 129.291 22.8601C129.154 22.7833 129.023 22.6972 128.902 22.6088C128.774 22.5135 128.697 22.4181 128.588 22.3134C128.355 22.0901 128.124 21.7086 128.054 21.6434L128.045 27.9476H128.872V23.5626H128.874ZM123.464 27.9476C123.522 27.6568 123.48 24.8165 123.48 24.0279C123.48 23.4533 123.357 23.2532 123.758 22.9624L123.895 22.8484C123.644 22.7507 123.32 22.4762 123.178 22.3181L122.651 21.6527L122.66 27.9499H123.464V27.9476ZM119.722 23.4277C119.722 22.9834 119.916 23.0159 120.095 22.7856C119.969 22.6554 119.762 22.6112 119.445 22.2669C119.349 22.1622 119.261 22.0622 119.182 21.9552C119.105 21.8528 119.016 21.6853 118.937 21.6388L118.932 27.152L118.129 27.1474V24.2837C118.028 24.3326 118.042 24.3303 117.963 24.4117C117.555 24.8281 117.115 24.9258 116.94 25.0723C117.222 25.2073 117.332 25.291 117.332 25.6842C117.332 26.0029 117.336 25.6051 117.329 25.9214C116.884 26.0215 116.665 26.0703 116.437 26.3495C116.067 26.8031 116.125 27.3684 116.125 27.9499H121.735V23.43C121.735 23.1578 121.791 23.0671 121.975 22.9019C122.008 22.8717 122.015 22.8694 122.05 22.8391C122.089 22.8066 122.082 22.8159 122.108 22.788C121.859 22.5856 121.761 22.6065 121.458 22.2785C121.36 22.1738 121.279 22.0785 121.197 21.9645C121.113 21.8482 121.041 21.7109 120.948 21.6341V27.1543H119.725L119.72 23.43L119.722 23.4277ZM116.947 27.152C116.961 26.924 117.096 26.7403 117.329 26.7682V27.1497L117.208 27.159H117.073L116.947 27.152ZM126.279 26.4332C126.391 26.5681 126.556 26.7612 126.57 26.824V27.1474H125.969V26.824C125.969 26.7635 126.172 26.5449 126.276 26.4332M126.929 25.9773C127.297 25.6306 127.304 25.6493 127.299 25.2933V24.0581C127.299 23.2555 127.159 23.1043 127.67 22.8252L127.567 22.7414C126.843 22.2622 126.903 21.9738 126.484 21.6085C126.467 22.8624 126.491 23.5998 126.479 24.8583C126.479 25.0026 126.484 25.1119 126.479 25.1956C126.479 25.3236 126.274 25.4608 126.183 25.5795C126.008 25.3887 125.878 25.2468 125.878 25.2026C125.878 25.0421 125.878 24.97 125.878 24.6141C125.878 22.7089 125.876 23.0834 125.873 21.6551C125.459 22.0319 125.326 22.5228 124.708 22.7694C124.746 22.8205 124.718 22.7856 124.762 22.8298C125.174 23.2416 125.065 22.5786 125.065 23.6161V25.3957C125.065 25.633 125.3 25.9214 125.498 26.0354L125.307 26.2262C125.202 26.3309 125.079 26.3727 125.079 26.5774V27.9453H127.297V26.8798C127.297 26.2773 127.236 26.2936 126.926 25.9749M124.403 29.783L126.463 32.2535C126.698 32.5373 125.946 32.6513 125.696 32.4187L125.521 32.2558H118.783V31.4509L122.276 31.4463C122.243 31.0159 121.936 31.0532 121.523 31.0555C120.573 31.0555 119.561 31.095 118.739 31.0508C118.786 30.9345 118.986 30.7926 119.151 30.5321C119.221 30.4227 119.461 29.9598 119.51 29.9063C119.878 30.232 119.457 30.2715 120.526 30.2715H121.388C121.842 30.2715 122.276 30.2552 122.597 30.4925C122.868 30.6926 123.059 30.9927 123.061 31.4463H124.848C124.324 30.8159 123.797 30.1831 123.271 29.5527C123.271 29.5481 123.266 29.5457 123.261 29.5411C123.506 29.348 123.87 29.1433 124.405 29.783M116.952 31.4556C116.978 31.209 117.089 31.0857 117.327 31.0555L117.322 31.4626L116.952 31.4579V31.4556ZM116.952 29.4248C117.136 29.5783 117.327 29.6365 117.327 29.9901L117.322 30.2413C116.067 30.332 116.122 31.4067 116.122 32.2558H118.126L118.115 28.6501C117.879 28.9409 117.306 29.2736 116.952 29.4224M128.32 31.3928C128.32 31.3928 128.241 31.665 127.926 31.5324C127.761 31.4626 127.742 31.2602 127.809 31.1183C127.949 30.8252 128.476 31.0276 128.32 31.3928ZM126.98 32.2907C127.376 32.2628 127.796 32.2907 128.201 32.2744C128.022 32.977 127.462 33.063 126.663 33.063C126.728 33.198 126.805 33.2142 126.952 33.2864C128.527 34.0796 129.797 32.2442 129.089 30.8857C128.52 29.7505 127.418 30.0133 127.055 31.0741C126.894 31.5463 126.878 32.0814 126.978 32.2884" fill="#737389"/>
</g>
<defs>
<clipPath id="clip0_1146_29823">
<rect width="146.743" height="48" fill="white"/>
</clipPath>
</defs>
</svg>
