<svg width="832" height="832" viewBox="0 0 832 832" fill="none" xmlns="http://www.w3.org/2000/svg">
<mask id="mask0_102_2" style="mask-type:luminance" maskUnits="userSpaceOnUse" x="0" y="0" width="832" height="832">
<path fill-rule="evenodd" clip-rule="evenodd" d="M832 259.119C832 249.242 832.004 239.364 831.943 229.486C831.894 221.165 831.798 212.846 831.572 204.529C831.083 186.402 830.014 168.119 826.79 150.194C823.52 132.01 818.181 115.086 809.767 98.5644C801.496 82.3253 790.691 67.4655 777.799 54.5826C764.91 41.6998 750.046 30.902 733.801 22.6356C717.263 14.2197 700.321 8.88238 682.117 5.61396C664.19 2.39502 645.902 1.32776 627.775 0.838055C619.452 0.612891 611.129 0.517979 602.804 0.466484C592.921 0.405901 583.038 0.41095 573.155 0.41095L458.404 0H372.58L259.86 0.41095C249.958 0.41095 240.055 0.405901 230.153 0.466484C221.811 0.517979 213.473 0.612891 205.134 0.838055C186.964 1.32776 168.635 2.39603 150.666 5.61901C132.437 8.88641 115.47 14.2217 98.9093 22.6315C82.6299 30.899 67.7338 41.6978 54.8177 54.5826C41.9036 67.4645 31.0786 82.3213 22.792 98.5573C14.3549 115.087 9.00553 132.021 5.72804 150.215C2.50103 168.133 1.43176 186.41 0.940032 204.529C0.715878 212.847 0.618947 221.166 0.568462 229.486C0.50788 239.365 0 251.636 0 261.514L0.0030291 372.672L0 459.416L0.512928 572.936C0.512928 582.827 0.508889 592.718 0.568462 602.609C0.618947 610.941 0.715878 619.271 0.941042 627.6C1.43176 645.751 2.50305 664.06 5.73308 682.009C9.00956 700.217 14.358 717.165 22.7879 733.708C31.0756 749.971 41.9026 764.85 54.8177 777.751C67.7328 790.652 82.6249 801.464 98.9012 809.742C115.472 818.169 132.448 823.513 150.687 826.786C168.648 830.01 186.971 831.079 205.134 831.569C213.473 831.794 221.812 831.89 230.154 831.94C240.056 832.001 249.958 831.997 259.86 831.997L373.599 832H459.636L573.155 831.996C583.038 831.996 592.921 832.001 602.804 831.94C611.129 831.89 619.452 831.794 627.775 831.569C645.909 831.078 664.203 830.008 682.138 826.782C700.331 823.509 717.264 818.167 733.794 809.745C750.042 801.468 764.909 790.654 777.799 777.751C790.689 764.852 801.493 749.975 809.764 733.715C818.183 717.164 823.522 700.208 826.794 681.988C830.015 664.046 831.083 645.744 831.573 627.6C831.798 619.27 831.894 610.94 831.943 602.609C832.005 592.718 832 582.827 832 572.936C832 572.936 831.994 461.42 831.994 459.416V372.581C831.994 371.101 832 259.119 832 259.119Z" fill="white"/>
</mask>
<g mask="url(#mask0_102_2)">
<rect width="832" height="832" transform="translate(0.34375 -0.236816)" fill="#989898"/>
<rect width="832" height="832" transform="translate(0.34375 -0.236816)" fill="url(#paint0_linear_102_2)"/>
<rect width="832" height="832" transform="translate(0.34375 -0.236816)" fill="url(#paint1_radial_102_2)"/>
<path d="M533.503 530.237C522.704 530.329 517.354 536.241 517.454 547.974C517.499 553.307 519.533 557.29 523.556 559.923C527.712 562.554 532.056 563.85 536.589 563.812L578.188 563.457L570.917 555.119C566.069 549.56 559.888 544.013 552.374 538.476C544.993 532.939 538.703 530.192 533.503 530.237ZM568.877 761.744C560.379 765.95 544.901 764.682 522.442 757.939C469.499 741.323 442.961 733.015 442.827 733.016L442.73 721.617L454.696 717.515C462.539 714.781 472.374 710.964 484.199 706.063C496.158 701.161 508.246 695.791 520.463 689.954C532.682 684.249 543.827 677.821 553.9 670.668C564.106 663.514 570.783 656.857 573.931 650.697L536.732 651.014C524.599 651.117 514.23 646.938 505.624 638.478C497.019 630.018 492.664 619.721 492.561 607.588L492.068 549.79C491.922 532.591 496.337 518.686 505.313 508.076C514.423 497.465 528.978 492.074 548.977 491.904C561.11 491.8 572.203 494.773 582.254 500.82C592.305 506.735 600.377 515.133 606.47 526.015C612.696 536.896 616.335 549.265 617.386 563.123L671.384 562.663L672.127 649.86L612.529 650.368C611.526 673.444 606.589 696.487 597.718 719.497C588.847 742.506 579.233 756.589 568.877 761.744ZM644.558 650.095L643.815 562.898L966.603 560.149L967.346 647.346L644.558 650.095Z" fill="black"/>
<path d="M-174.333 409V350.867H-65.6667V409H-174.333ZM-84.4896 409V350.867H262.577V409H-84.4896ZM381.759 383.133L381.626 385.8C381.626 387.578 381.27 389.756 380.559 392.333C379.848 394.911 378.87 397.489 377.626 400.067C376.382 402.556 374.337 404.689 371.493 406.467C368.648 408.244 365.27 409.133 361.359 409.133C358.693 409.133 356.204 408.644 353.893 407.667C351.67 406.689 349.848 405.489 348.426 404.067C347.004 402.644 345.715 400.956 344.559 399C343.404 396.956 342.559 395.133 342.026 393.533C341.493 391.933 341.004 390.244 340.559 388.467C340.204 386.689 339.982 385.489 339.893 384.867C339.804 384.244 339.759 383.756 339.759 383.4L339.493 386.067C339.226 387.844 338.648 389.978 337.759 392.467C336.87 394.956 335.715 397.489 334.293 400.067C332.87 402.556 330.737 404.689 327.893 406.467C325.048 408.244 321.759 409.133 318.026 409.133C314.115 409.133 310.737 408.2 307.893 406.333C305.048 404.467 303.004 402.378 301.759 400.067C300.515 397.756 299.537 395.133 298.826 392.2C298.115 389.178 297.715 387.089 297.626 385.933C297.626 384.778 297.626 383.844 297.626 383.133L297.359 384.467C297.27 385.444 296.915 386.689 296.293 388.2C295.759 389.711 295.048 391.4 294.159 393.267C293.27 395.133 291.937 397 290.159 398.867C288.382 400.644 286.337 402.289 284.026 403.8C281.804 405.311 278.915 406.556 275.359 407.533C271.804 408.511 267.893 409 263.626 409H244.026V350.867H278.159C281.093 350.867 283.226 350.378 284.559 349.4C285.893 348.333 286.559 346.956 286.559 345.267V329.667H306.026L305.893 331.933C305.804 333.356 305.893 335.133 306.159 337.267C306.426 339.311 306.87 341.4 307.493 343.533C308.204 345.578 309.404 347.356 311.093 348.867C312.87 350.289 315.048 351 317.626 351C320.382 351 322.693 350.244 324.559 348.733C326.426 347.133 327.715 345.4 328.426 343.533C329.137 341.667 329.582 339.533 329.759 337.133C330.026 334.644 330.115 332.956 330.026 332.067C330.026 331.089 329.982 330.289 329.893 329.667H349.493L349.359 331.933C349.27 333.356 349.315 335.133 349.493 337.267C349.759 339.311 350.204 341.4 350.826 343.533C351.537 345.578 352.737 347.356 354.426 348.867C356.204 350.289 358.382 351 360.959 351C365.315 351 368.559 349.178 370.693 345.533C372.826 341.8 373.715 338.378 373.359 335.267C373.004 332.067 372.959 330.2 373.226 329.667H392.826V345.267C392.915 348.911 395.715 350.778 401.226 350.867H435.226V409H415.893C410.026 409 404.826 408.067 400.293 406.2C395.848 404.333 392.515 402.289 390.293 400.067C388.07 397.756 386.204 395.133 384.693 392.2C383.27 389.178 382.426 387.089 382.159 385.933C381.982 384.778 381.848 383.844 381.759 383.133ZM416.682 409V350.867H763.749V409H416.682ZM745.198 409V350.867H1092.26V409H745.198Z" fill="black"/>
<path opacity="0.4" d="M47.7311 553.459L420.688 558.397C413.646 576.222 408.803 584.782 398.749 597.669L26.4516 592.856C31.9862 577.549 35.7273 568.957 47.7311 553.459Z" fill="#161616"/>
<rect width="832" height="832" transform="translate(0.34375 -0.236816)" fill="#989898"/>
<rect width="832" height="832" transform="translate(0.34375 -0.236816)" fill="url(#paint2_linear_102_2)"/>
<rect width="832" height="832" transform="translate(0.34375 -0.236816)" fill="url(#paint3_radial_102_2)"/>
<path d="M533.503 530.237C522.704 530.329 517.354 536.241 517.454 547.974C517.499 553.307 519.533 557.29 523.556 559.923C527.712 562.554 532.056 563.85 536.589 563.812L578.188 563.457L570.917 555.119C566.069 549.56 559.888 544.013 552.374 538.476C544.993 532.939 538.703 530.192 533.503 530.237ZM568.877 761.744C560.379 765.95 544.901 764.682 522.442 757.939C469.499 741.323 442.961 733.015 442.827 733.016L442.73 721.617L454.696 717.515C462.539 714.781 472.374 710.964 484.199 706.063C496.158 701.161 508.246 695.791 520.463 689.954C532.682 684.249 543.827 677.821 553.9 670.668C564.106 663.514 570.783 656.857 573.931 650.697L536.732 651.014C524.599 651.117 514.23 646.938 505.624 638.478C497.019 630.018 492.664 619.721 492.561 607.588L492.068 549.79C491.922 532.591 496.337 518.686 505.313 508.076C514.423 497.465 528.978 492.074 548.977 491.904C561.11 491.8 572.203 494.773 582.254 500.82C592.305 506.735 600.377 515.133 606.47 526.015C612.696 536.896 616.335 549.265 617.386 563.123L671.384 562.663L672.127 649.86L612.529 650.368C611.526 673.444 606.589 696.487 597.718 719.497C588.847 742.506 579.233 756.589 568.877 761.744ZM644.558 650.095L643.815 562.898L966.603 560.149L967.346 647.346L644.558 650.095Z" fill="black"/>
<path d="M-174.333 409V350.867H-65.6667V409H-174.333ZM-84.4896 409V350.867H262.577V409H-84.4896ZM381.759 383.133L381.626 385.8C381.626 387.578 381.27 389.756 380.559 392.333C379.848 394.911 378.87 397.489 377.626 400.067C376.382 402.556 374.337 404.689 371.493 406.467C368.648 408.244 365.27 409.133 361.359 409.133C358.693 409.133 356.204 408.644 353.893 407.667C351.67 406.689 349.848 405.489 348.426 404.067C347.004 402.644 345.715 400.956 344.559 399C343.404 396.956 342.559 395.133 342.026 393.533C341.493 391.933 341.004 390.244 340.559 388.467C340.204 386.689 339.982 385.489 339.893 384.867C339.804 384.244 339.759 383.756 339.759 383.4L339.493 386.067C339.226 387.844 338.648 389.978 337.759 392.467C336.87 394.956 335.715 397.489 334.293 400.067C332.87 402.556 330.737 404.689 327.893 406.467C325.048 408.244 321.759 409.133 318.026 409.133C314.115 409.133 310.737 408.2 307.893 406.333C305.048 404.467 303.004 402.378 301.759 400.067C300.515 397.756 299.537 395.133 298.826 392.2C298.115 389.178 297.715 387.089 297.626 385.933C297.626 384.778 297.626 383.844 297.626 383.133L297.359 384.467C297.27 385.444 296.915 386.689 296.293 388.2C295.759 389.711 295.048 391.4 294.159 393.267C293.27 395.133 291.937 397 290.159 398.867C288.382 400.644 286.337 402.289 284.026 403.8C281.804 405.311 278.915 406.556 275.359 407.533C271.804 408.511 267.893 409 263.626 409H244.026V350.867H278.159C281.093 350.867 283.226 350.378 284.559 349.4C285.893 348.333 286.559 346.956 286.559 345.267V329.667H306.026L305.893 331.933C305.804 333.356 305.893 335.133 306.159 337.267C306.426 339.311 306.87 341.4 307.493 343.533C308.204 345.578 309.404 347.356 311.093 348.867C312.87 350.289 315.048 351 317.626 351C320.382 351 322.693 350.244 324.559 348.733C326.426 347.133 327.715 345.4 328.426 343.533C329.137 341.667 329.582 339.533 329.759 337.133C330.026 334.644 330.115 332.956 330.026 332.067C330.026 331.089 329.982 330.289 329.893 329.667H349.493L349.359 331.933C349.27 333.356 349.315 335.133 349.493 337.267C349.759 339.311 350.204 341.4 350.826 343.533C351.537 345.578 352.737 347.356 354.426 348.867C356.204 350.289 358.382 351 360.959 351C365.315 351 368.559 349.178 370.693 345.533C372.826 341.8 373.715 338.378 373.359 335.267C373.004 332.067 372.959 330.2 373.226 329.667H392.826V345.267C392.915 348.911 395.715 350.778 401.226 350.867H435.226V409H415.893C410.026 409 404.826 408.067 400.293 406.2C395.848 404.333 392.515 402.289 390.293 400.067C388.07 397.756 386.204 395.133 384.693 392.2C383.27 389.178 382.426 387.089 382.159 385.933C381.982 384.778 381.848 383.844 381.759 383.133ZM416.682 409V350.867H763.749V409H416.682ZM745.198 409V350.867H1092.26V409H745.198Z" fill="black"/>
<path opacity="0.4" d="M47.7311 553.459L420.688 558.397C413.646 576.222 408.803 584.782 398.749 597.669L26.4516 592.856C31.9862 577.549 35.7273 568.957 47.7311 553.459Z" fill="#161616"/>
<path d="M-5.33333 239V180.867H341.733V239H-5.33333ZM363.449 239H323.182V180.867H369.982C378.516 180.867 385.938 180.511 392.249 179.8C398.649 179 403.36 178.289 406.382 177.667C409.493 176.956 412.205 175.844 414.516 174.333C416.827 172.733 418.116 171.711 418.382 171.267C418.738 170.822 419.36 169.889 420.249 168.467C419.627 168.111 416.693 166.467 411.449 163.533C406.293 160.511 401.76 157.978 397.849 155.933C393.938 153.8 389.316 151.756 383.982 149.8C378.738 147.756 374.471 146.733 371.182 146.733C368.782 146.733 366.693 146.911 364.916 147.267C357.36 148.6 354.56 152.467 356.516 158.867C357.582 161.178 358.116 162.333 358.116 162.333L347.982 169.667L342.782 160.733C340.827 157.267 339.805 153.533 339.716 149.533C339.627 145.444 340.516 141.622 342.382 138.067L343.316 136.333C343.938 135.178 344.427 134.244 344.782 133.533C345.227 132.733 345.938 131.578 346.916 130.067C347.893 128.467 348.782 127.133 349.582 126.067C350.382 124.911 351.405 123.578 352.649 122.067C353.893 120.467 355.093 119.089 356.249 117.933C357.405 116.778 358.738 115.622 360.249 114.467C361.76 113.222 363.271 112.244 364.782 111.533C366.293 110.733 367.938 110.111 369.716 109.667C371.582 109.133 373.405 108.867 375.182 108.867C379.449 108.867 383.671 109.756 387.849 111.533C391.227 112.956 395.938 115.133 401.982 118.067C408.116 121 412.738 123.133 415.849 124.467C429.449 130.156 444.516 133 461.049 133L471.849 132.867L462.116 167.533L459.982 167.267C458.56 167.089 456.427 167.533 453.582 168.6C450.827 169.578 448.071 171.222 445.316 173.533C448.871 178.333 455.582 180.778 465.449 180.867H508.516V239H455.582C447.582 239 440.471 236.644 434.249 231.933C428.116 227.222 423.893 221.044 421.582 213.4C419.182 217.756 416.516 221.444 413.582 224.467C410.738 227.4 407.093 230.022 402.649 232.333C398.205 234.644 392.738 236.333 386.249 237.4C379.849 238.467 372.249 239 363.449 239ZM489.979 239V180.867H705.179V239H489.979ZM707.53 239H686.464V180.867H720.464C718.064 171.267 722.286 159.133 733.13 144.467C739.441 135.933 744.775 129.978 749.13 126.6C753.575 123.222 758.997 121.533 765.397 121.533C770.552 121.533 775.53 123.044 780.33 126.067C791.441 133.267 800.775 147.622 808.33 169.133C810.641 176.778 811.797 180.6 811.797 180.6L784.33 234.733L778.464 232.867C774.464 231.711 768.152 230.244 759.53 228.467C750.997 226.689 742.152 225.222 732.997 224.067C731.13 229.044 727.797 232.778 722.997 235.267C718.197 237.756 713.041 239 707.53 239ZM742.997 170.2C742.997 173.756 744.33 176.422 746.997 178.2C749.752 179.978 752.597 180.867 755.53 180.867H783.264L778.464 175.267C775.264 171.533 771.175 167.8 766.197 164.067C761.308 160.333 757.13 158.467 753.664 158.467C746.552 158.467 742.997 162.378 742.997 170.2Z" fill="black"/>
<path d="M-215.995 946.865C-212.647 929.179 -208.237 913.052 -202.765 898.482C-197.947 883.788 -194.839 874.538 -193.44 870.732C-193.192 869.422 -187.739 865.705 -177.08 859.581C-167.201 853.987 -149.416 847.855 -123.727 841.184C-98.8168 835.044 -65.3912 830.515 -23.4502 827.599C66.5753 821.573 150.89 826.001 229.494 840.882C325.128 858.987 394.489 890.437 437.575 935.234C458.587 956.853 472.163 980.117 478.303 1005.03C484.443 1029.94 485.281 1054.18 480.817 1077.76C475.609 1105.28 464.461 1133.7 447.373 1163.03C429.506 1192.9 412.392 1213.4 396.033 1224.56L383.102 1206.84C390.326 1197.35 398.047 1185.24 406.263 1170.52C414.48 1155.79 420.138 1140.23 423.238 1123.86C432.415 1075.39 411.538 1035.13 360.607 1003.1C319.82 978.417 256.195 957.89 169.731 941.521C94.4019 927.261 25.3486 919.276 -37.4295 917.569C-92.0992 916.04 -138.67 920.115 -177.142 929.795C-176.401 950.969 -171.499 969.877 -162.437 986.52C-154.153 1003.69 -144.657 1018.04 -133.947 1029.57C-123.238 1041.1 -117.759 1046.21 -117.511 1044.9L-164.74 1143.84C-184.283 1125.21 -199.089 1103.07 -209.16 1077.42C-223.141 1040.16 -225.42 996.648 -215.995 946.865ZM175.62 770.635C165.601 762.631 155.688 752.273 145.881 739.56C135.42 726.724 128.109 715.162 123.95 704.876C131.458 697.476 140.072 689.608 149.792 681.271C159.513 672.933 171.712 664.047 186.389 654.613C208.161 686.553 225.774 708.208 239.228 719.575C205.764 745.808 184.562 762.828 175.62 770.635Z" fill="black"/>
</g>
<defs>
<linearGradient id="paint0_linear_102_2" x1="416" y1="28.7868" x2="416" y2="756.904" gradientUnits="userSpaceOnUse">
<stop stop-color="white" stop-opacity="0.88"/>
<stop offset="1" stop-color="white" stop-opacity="0"/>
</linearGradient>
<radialGradient id="paint1_radial_102_2" cx="0" cy="0" r="1" gradientUnits="userSpaceOnUse" gradientTransform="translate(416 43.9389) rotate(90) scale(661.643 1075.08)">
<stop stop-color="white" stop-opacity="0.95"/>
<stop offset="1" stop-color="white" stop-opacity="0.88"/>
</radialGradient>
<linearGradient id="paint2_linear_102_2" x1="416" y1="28.7868" x2="416" y2="756.904" gradientUnits="userSpaceOnUse">
<stop stop-color="white" stop-opacity="0.88"/>
<stop offset="1" stop-color="white" stop-opacity="0"/>
</linearGradient>
<radialGradient id="paint3_radial_102_2" cx="0" cy="0" r="1" gradientUnits="userSpaceOnUse" gradientTransform="translate(416 43.9389) rotate(90) scale(661.643 1075.08)">
<stop stop-color="white" stop-opacity="0.95"/>
<stop offset="1" stop-color="white" stop-opacity="0.88"/>
</radialGradient>
</defs>
</svg>
